<?xml version="1.0" encoding="utf-8"?>
<!-- Generator: Adobe Illustrator 26.2.1, SVG Export Plug-In . SVG Version: 6.00 Build 0)  -->
<svg version="1.1" id="Livello_1" xmlns="http://www.w3.org/2000/svg" xmlns:xlink="http://www.w3.org/1999/xlink" x="0px" y="0px"
	 viewBox="0 0 660.2 175" style="enable-background:new 0 0 660.2 175;" xml:space="preserve">
<style type="text/css">
	.st0{fill:#006937;}
	.st1{fill-rule:evenodd;clip-rule:evenodd;fill:#006937;}
</style>
<g>
	<g>
		<path class="st0" d="M284.2,126.5h3.5v32.7h-3.5v-27.3c-5,4.2-5.4,5.2-10.7,8.1v-3C274.9,136.5,283.2,129.3,284.2,126.5
			L284.2,126.5z"/>
		<polygon class="st0" points="422.6,39.9 482.9,102.2 483,102.2 483,43.7 492.3,43.7 492.3,124.9 492.1,124.9 431.9,62.6 
			431.7,62.6 431.7,120.9 422.6,120.9 		"/>
		<polygon class="st0" points="394.9,43.5 404.2,43.5 404.2,120.7 394.9,120.7 		"/>
		<polygon class="st0" points="208.8,43.2 218.1,43.2 218.1,120.4 208.8,120.4 		"/>
		<polygon class="st0" points="135.5,43.7 144.6,43.7 144.6,74.7 183.8,74.7 183.8,43.7 193.1,43.7 193.1,120.9 183.8,120.9 
			183.8,83.3 144.6,83.3 144.6,120.9 135.5,120.9 		"/>
		<path class="st0" d="M118.8,48.5v11.4C114.2,55.3,105.1,49,95.9,49h-2.1c-17.5,0-28.1,17.4-28.1,31.4C65.8,99.9,81.4,112,94,112
			h2.5c11.5,0,21.1-9.7,22.3-10.5V113c-5.4,4.3-15,7.5-23.9,7.5c-0.5,0-1.1,0-1.7,0c-22.7,0-36.8-21.4-36.8-39.6
			c0-21.3,14.9-40.3,37.9-40.3c1.2,0,1.7,0,2.1,0C108.8,40.5,117.1,47.1,118.8,48.5z"/>
		<path class="st1" d="M350.4,85.9c0.7-0.1,4.7-0.9,7.6-1.9c7.8-2.7,11.5-13.3,11.5-18.9v-1.9c0-13.4-12.7-20.2-23.1-20.2h-17.2
			v77.2h9.3V86.6h1.5l13.4,19.1l10,14.6h11.4v-0.2L350.4,85.9z M338.6,78.2V51.6c7,0,6.1-0.1,7.2,0c11.5,1,14.2,7.3,14.2,13.3
			c0,9.7-7.1,12.9-15,13.3C341.4,78.4,341.9,78.2,338.6,78.2z"/>
		<path class="st1" d="M317.3,133.7c-1.6-3.5-4.2-7.2-10-7.2c-5.7,0-10.4,4.7-10.4,10.5c0,7.1,4.8,10.8,10.6,10.8
			c4,0.1,5.5-1.2,7.2-3.4c0,0,0,1.4,0,2.2c-0.1,1.9-0.2,2.9-0.6,4.8c-0.7,3.5-3.6,5.1-6.1,5.2c-3.5,0.1-6.3-0.7-9.3-3.7
			c0,0,0,2.6,0,3.9c3.2,2.9,6.1,3.1,9.2,3.1c3.7,0,6-1.2,7.9-3.3c1.8-2.4,2.1-4.8,2.6-8.2C318.5,141.9,318.6,136.5,317.3,133.7z
			 M307.4,144.8c-3.7,0-6.6-3.3-6.6-7.4c0-4.1,3-7.4,6.6-7.4c4.2,0,7.1,3.3,7.1,7.4C314.5,141.9,311.7,144.8,307.4,144.8z"/>
		<path class="st1" d="M333.1,126.5c-6.7,0-10.8,4.2-10.8,16.6c0,12.2,4.1,16.6,10.8,16.6c6.7,0,10.9-4.4,10.9-16.6
			C344,130.7,339.8,126.5,333.1,126.5z M332.8,156.6c-5.4,0-7.4-5.5-7.4-13.3s2.1-13.3,7.4-13.3c5.7,0,7.4,5.5,7.4,13.3
			C340.2,151.1,338.4,156.6,332.8,156.6z"/>
		<path class="st1" d="M358.8,138.6c-4-0.1-5.5,1.2-7.2,3.4c0,0,0-1.4,0-2.2c0.1-1.9,0.2-2.9,0.6-4.8c0.7-3.5,3.5-5.1,6.1-5.2
			c3.5-0.1,6.3,0.7,9.3,3.7c0,0,0-2.6,0-3.8c-3.2-2.9-6.1-3.2-9.2-3.2c-3.7,0-6,1.2-7.9,3.3c-1.8,2.4-2.1,4.8-2.6,8.2
			c-0.1,6.5-0.2,11.9,1.1,14.7c1.6,3.5,4.2,7.2,10,7.2c5.7,0,10.4-4.7,10.4-10.5C369.4,142.3,364.5,138.6,358.8,138.6z M359,156.4
			c-4.2,0-7.1-3.3-7.1-7.4c0-4.5,2.7-7.4,7.1-7.4c3.7,0,6.6,3.3,6.6,7.4C365.6,153.1,362.7,156.4,359,156.4z"/>
		<g>
			<path class="st0" d="M617.5,15.6c-6.8,0-12.4,5.6-12.4,12.4s5.6,12.4,12.4,12.4c6.8,0,12.4-5.6,12.4-12.4
				C629.9,21.1,624.4,15.6,617.5,15.6z M617.5,38.4c-5.8,0-10.5-4.7-10.5-10.5s4.7-10.5,10.5-10.5S628,22.1,628,27.9
				S623.3,38.4,617.5,38.4z"/>
			<path class="st0" d="M622,33.1c-0.1-0.2-0.1-0.6-0.1-1.1l-0.1-1.7c0-0.7-0.2-1.2-0.4-1.6c-0.2-0.3-0.6-0.6-1.1-0.8
				c0.5-0.3,1-0.7,1.3-1.1c0.3-0.5,0.5-1.1,0.5-1.8c0-1.4-0.6-2.4-1.7-2.9c-0.6-0.3-1.4-0.4-2.3-0.4h-5.6v12.4h1.7v-5.3h3.7
				c0.7,0,1.2,0.1,1.5,0.2c0.5,0.3,0.8,0.8,0.9,1.6l0.1,2.1c0,0.5,0.1,0.8,0.1,1s0.1,0.3,0.1,0.4h2.1v-0.3
				C622.3,33.8,622.1,33.5,622,33.1z M619.7,27c-0.4,0.3-1,0.5-1.8,0.5h-3.8v-4.2h4c0.6,0,1,0.1,1.3,0.3c0.6,0.3,0.9,0.9,0.9,1.8
				C620.4,26.1,620.2,26.7,619.7,27z"/>
		</g>
		<path class="st0" d="M272.2,42.3c-21.7,0-40.9,17.8-40.9,39.8s19.2,40,40.9,40s40.7-18,40.7-40C312.8,60,293.9,42.3,272.2,42.3z
			 M272.1,113.5c-17,0-31.4-14.1-31.4-31.4s14.4-31.3,31.4-31.3s31.2,14.1,31.2,31.4S289.2,113.5,272.1,113.5z"/>
		<path class="st0" d="M547.7,42.3c-21.7,0-40.9,17.8-40.9,39.8s19.2,40,40.9,40s40.7-18,40.7-40C588.4,60,569.4,42.3,547.7,42.3z
			 M547.7,113.5c-17,0-31.4-14.1-31.4-31.4s14.4-31.3,31.4-31.3s31.2,14.1,31.2,31.4S564.7,113.5,547.7,113.5z"/>
		<path class="st0" d="M609.1,56.3c-3.3-7.9-8.1-14.9-14.1-21s-13.1-10.8-21-14.1c-8.1-3.4-16.8-5.2-25.7-5.2l0,0h-452l0,0
			c-8.9,0-17.6,1.7-25.7,5.2c-7.9,3.3-14.9,8.1-21,14.1s-10.8,13.1-14.1,21C32,64.4,30.3,73.1,30.3,82s1.7,17.6,5.2,25.7
			c3.3,7.9,8.1,14.9,14.1,21c6,6.1,13.1,10.8,21,14.1c8.1,3.4,16.8,5.2,25.7,5.2h152.4v-8.9H96.3c-7.7,0-15.2-1.5-22.2-4.5
			c-6.8-2.9-12.9-7-18.1-12.2s-9.4-11.3-12.2-18.1c-3-7-4.5-14.5-4.5-22.2s1.5-15.2,4.5-22.2c2.9-6.8,7-12.9,12.2-18.1
			s11.3-9.4,18.1-12.2c7-3,14.5-4.5,22.2-4.5l0,0h451.9l0,0c7.7,0,15.2,1.5,22.2,4.5c6.8,2.9,12.9,7,18.1,12.2
			c5.2,5.2,9.4,11.3,12.2,18.1c3,7,4.5,14.5,4.5,22.2s-1.5,15.2-4.5,22.2c-2.9,6.8-7,12.9-12.2,18.1s-11.3,9.4-18.1,12.2
			c-7,3-14.5,4.5-22.2,4.5H392.8v8.9h155.4c8.9,0,17.6-1.7,25.7-5.2c7.9-3.3,14.9-8.1,21-14.1c6.1-6.1,10.8-13.1,14.1-21
			c3.4-8.1,5.2-16.8,5.2-25.7S612.5,64.4,609.1,56.3z"/>
	</g>
</g>
</svg>
