<?xml version="1.0" ?><svg viewBox="0 0 48 48" xmlns="http://www.w3.org/2000/svg" xmlns:xlink="http://www.w3.org/1999/xlink"><defs><style>.cls-1{fill:url(#linear-gradient);}.cls-2{fill:url(#linear-gradient-2);}.cls-3{fill:url(#linear-gradient-3);}.cls-4{fill:#e09d20;}.cls-5{fill:#f3de8f;}.cls-6{fill:#ffe996;}.cls-7{fill:url(#linear-gradient-4);}.cls-8{fill:url(#linear-gradient-5);}.cls-9{fill:#fff;}</style><linearGradient gradientUnits="userSpaceOnUse" id="linear-gradient" x1="7.3" x2="39.3" y1="19" y2="19"><stop offset="0" stop-color="#edcc50"/><stop offset="1" stop-color="#e8c74d"/></linearGradient><linearGradient gradientUnits="userSpaceOnUse" id="linear-gradient-2" x1="7.3" x2="39.3" y1="29" y2="29"><stop offset="0" stop-color="#fbd855"/><stop offset="1" stop-color="#f6d352"/></linearGradient><linearGradient id="linear-gradient-3" x1="33.17" x2="33.17" xlink:href="#linear-gradient" y1="27.39" y2="36.22"/><linearGradient gradientUnits="userSpaceOnUse" id="linear-gradient-4" x1="34.32" x2="34.32" y1="24.28" y2="36.57"><stop offset="0" stop-color="#00bde8"/><stop offset="1" stop-color="#009dc1"/></linearGradient><linearGradient gradientUnits="userSpaceOnUse" id="linear-gradient-5" x1="34.32" x2="34.32" y1="26.99" y2="34.08"><stop offset="0" stop-color="#00cfff"/><stop offset="1" stop-color="#00afd6"/></linearGradient></defs><title/><g id="icons"><g data-name="Layer 3" id="Layer_3"><rect class="cls-1" height="25" rx="5" ry="5" width="32" x="7.3" y="6.5"/><path class="cls-2" d="M7.3,16.5h32a0,0,0,0,1,0,0v20a5,5,0,0,1-5,5h-22a5,5,0,0,1-5-5v-20A0,0,0,0,1,7.3,16.5Z"/><path class="cls-3" d="M34.67,25.31a7.63,7.63,0,1,0,3.41,14.43A5,5,0,0,0,39.3,36.5V26.89A7.55,7.55,0,0,0,34.67,25.31Z"/><rect class="cls-4" height="2" width="9.52" x="10.64" y="30.5"/><rect class="cls-4" height="2" width="5.81" x="10.64" y="34.5"/><rect class="cls-5" height="10" width="7.41" x="19.6" y="6.5"/><polygon class="cls-6" points="27.01 16.5 19.6 16.5 19.6 24.7 23.3 22.9 27.01 24.7 27.01 16.5"/><circle class="cls-7" cx="34.32" cy="30.66" r="7.62"/><path class="cls-8" d="M34.32,24A6.63,6.63,0,1,0,41,30.67,6.63,6.63,0,0,0,34.32,24Z"/><polygon class="cls-9" points="29.8 30.75 33.54 34.5 33.54 32.6 38.22 32.6 38.22 28.9 33.54 28.9 33.54 27 29.8 30.75"/></g></g></svg>