<?xml version="1.0" encoding="utf-8"?>
<!-- Generator: Adobe Illustrator 26.2.1, SVG Export Plug-In . SVG Version: 6.00 Build 0)  -->
<svg version="1.1" id="Livello_1" xmlns="http://www.w3.org/2000/svg" xmlns:xlink="http://www.w3.org/1999/xlink" x="0px" y="0px"
	 viewBox="0 0 48 48" style="enable-background:new 0 0 48 48;" xml:space="preserve">
<style type="text/css">
	.st0{fill:#FDCF85;}
	.st1{fill:#EDBD77;}
	.st2{fill:#99543B;}
	.st3{fill:url(#SVGID_1_);}
	.st4{opacity:0.2;fill:#231F20;enable-background:new    ;}
	.st5{fill:url(#SVGID_00000046339787248682762740000006035360267328292280_);}
	.st6{fill:url(#SVGID_00000152233363516405852060000014854179896575669633_);}
	.st7{fill:url(#SVGID_00000129919501749792075530000007344305832164407986_);}
	.st8{fill:url(#SVGID_00000140014001009907635110000009767451048428427691_);}
	.st9{fill:url(#SVGID_00000139281298396662419290000012577243870585467528_);}
	.st10{fill:url(#SVGID_00000059309299727344964570000012356631931958688641_);}
</style>
<g id="icons">
	<g id="Layer_3">
		<path class="st0" d="M34.8,31.2c-4-0.7-6.7-2.7-6.7-4.4s0.1-6.6,0.1-6.6l-4.9-0.1h0l-4.9,0.1c0.5,2.2,0.8,4.5,1,6.7
			c0,1.7-1.8,3.8-5.6,4.3c-3.8,0.8-5,4.5-5.1,6.8l14.7-0.8h16C39.2,34.9,37.8,32.8,34.8,31.2z"/>
		<path class="st1" d="M23.4,29.5c1.8-0.1,3.5-1,4.7-2.3c0-0.1,0-0.2,0-0.3c0-1.7,0.1-6.6,0.1-6.6l-4.9-0.1h0l-4.9,0.1
			c0.5,2.2,0.8,4.5,1,6.7c0,0.2,0,0.5-0.1,0.7C20.4,28.7,21.9,29.4,23.4,29.5z"/>
		<path class="st0" d="M32.3,17.3c0.1-0.9-0.3-1.9-1-2.5c0.1-1.8,0.1-4.1-1-5C29.1,6.1,25.2,6,21.9,6s-5.5,1.4-6.8,5
			c-0.2,1.2-0.2,2.5,0.1,3.8c-0.7,0.6-1.1,1.6-1,2.5c0,1.5,0.7,2.7,1.5,2.7l0,0c1.2,5.7,5.3,8.1,7.6,8.1s6.3-2.4,7.5-8.2
			C31.7,19.9,32.3,18.7,32.3,17.3z"/>
		<path class="st2" d="M21.9,6c-3.1,0-5.5,1.4-6.8,5c-0.2,1.2-0.2,2.5,0.1,3.8c0.5,0.2,0.4,1,0.6,2.1c0.2,0.4,0.7,0.1,0.7,0.1
			c0-0.8,0.1-1.6,0.3-2.3c-0.4-1.5-0.3-2,0.8-2.4c3.6,0.8,7.3,0.7,10.8-0.5c0.8,0.5,1.1,1.5,0.8,2.3c-0.1,1.3-0.1,2.5,0.2,3.7
			c0.1,0.3,0.4,0.2,0.6,0.1c0.1-1.2,0.5-2.3,1.3-3.2c0.1-1.8,0.1-4.1-1-5C29.1,6.1,25.2,6,21.9,6z"/>
		
			<linearGradient id="SVGID_1_" gradientUnits="userSpaceOnUse" x1="24" y1="22.6213" x2="24" y2="9.3513" gradientTransform="matrix(1 0 0 -1 0 49.2912)">
			<stop  offset="0" style="stop-color:#FFFFFF"/>
			<stop  offset="0.3" style="stop-color:#FBFBFB"/>
			<stop  offset="1" style="stop-color:#F5F5F5"/>
		</linearGradient>
		<path class="st3" d="M29,40.6c5-0.2,8.9-0.8,10.4-1.6c-0.3-2.2-1.1-6-2.5-6.9c-2.3-1-4.7-1.9-7.1-2.7l-1.2,2.5l-3.3,1.5L24,33.8
			l-2.1-0.3c0,0-3.1-4.1-3.6-4.2c-1.2,1.2-6.7,2.7-6.7,2.7c-1.4,1-2.7,3.1-3,7c1.6,0.7,5.5,1.3,10.4,1.5L29,40.6z"/>
		<path class="st4" d="M29.3,29.2c-0.9,2.3-2.6,4.1-4.8,5c1.6,0.9,2.8,2.3,3.4,3.9c0,0,2.1-5.5,2.1-8.2
			C29.8,29.7,29.6,29.4,29.3,29.2z"/>
		<path class="st4" d="M18.9,29.2c0.9,2.3,2.6,4.1,4.9,5c-1.6,0.9-2.8,2.3-3.4,3.9c0,0-2.2-5.5-2.1-8.2
			C18.4,29.7,18.6,29.4,18.9,29.2z"/>
		
			<linearGradient id="SVGID_00000068640716359990644890000001526819322532691874_" gradientUnits="userSpaceOnUse" x1="21.95" y1="11.3163" x2="25.85" y2="11.3163" gradientTransform="matrix(1 0 0 -1 0 49.2912)">
			<stop  offset="0" style="stop-color:#C53535"/>
			<stop  offset="1" style="stop-color:#9C2A2A"/>
		</linearGradient>
		<path style="fill:url(#SVGID_00000068640716359990644890000001526819322532691874_);" d="M25.9,40.7L25,35.3l-2.1,0.1L22,40.7h2
			H25.9z"/>
		<path class="st4" d="M22.8,35.6c0.1,0.1,0.3,0.1,0.5,0.1h1.2c0.2,0,0.4-0.1,0.6-0.2l0-0.3l-2.1,0.1L22.8,35.6z"/>
		
			<linearGradient id="SVGID_00000047050226215765323700000016917587213931358377_" gradientUnits="userSpaceOnUse" x1="22.27" y1="14.7163" x2="25.41" y2="14.7163" gradientTransform="matrix(1 0 0 -1 0 49.2912)">
			<stop  offset="0" style="stop-color:#C53535"/>
			<stop  offset="1" style="stop-color:#9C2A2A"/>
		</linearGradient>
		<path style="fill:url(#SVGID_00000047050226215765323700000016917587213931358377_);" d="M23.2,33.6h1.2c0.5,0,1,0.4,1,1v0.1
			c0,0.5-0.4,1-1,1h-1.2c-0.5,0-1-0.4-1-1v-0.1C22.3,34,22.7,33.6,23.2,33.6z"/>
		
			<linearGradient id="SVGID_00000077296604582834691970000007434524616484253842_" gradientUnits="userSpaceOnUse" x1="20.8894" y1="20.4413" x2="20.8894" y2="10.9213" gradientTransform="matrix(1 0 0 -1 0 49.2912)">
			<stop  offset="0" style="stop-color:#FFFFFF"/>
			<stop  offset="0.3" style="stop-color:#FBFBFB"/>
			<stop  offset="1" style="stop-color:#F5F5F5"/>
		</linearGradient>
		<path style="fill:url(#SVGID_00000077296604582834691970000007434524616484253842_);" d="M18.8,28.6c0.9,2.3,2.6,4.1,4.8,5
			c-1.6,0.9-2.8,2.3-3.4,3.9c0,0-2.1-5.5-2.1-8.2C18.3,29,18.5,28.8,18.8,28.6z"/>
		
			<linearGradient id="SVGID_00000108277586175879015090000012604450942792890527_" gradientUnits="userSpaceOnUse" x1="-5233.5957" y1="20.4413" x2="-5233.5957" y2="10.9213" gradientTransform="matrix(-1 0 0 -1 -5206.3398 49.2912)">
			<stop  offset="0" style="stop-color:#FFFFFF"/>
			<stop  offset="0.3" style="stop-color:#FBFBFB"/>
			<stop  offset="1" style="stop-color:#F5F5F5"/>
		</linearGradient>
		<path style="fill:url(#SVGID_00000108277586175879015090000012604450942792890527_);" d="M29.4,28.6c-0.9,2.3-2.6,4.1-4.9,5
			c1.6,0.9,2.8,2.3,3.4,3.9c0,0,2.1-5.5,2.1-8.2C29.8,29,29.6,28.8,29.4,28.6z"/>
		
			<linearGradient id="SVGID_00000107569392128194843780000016474366909589681052_" gradientUnits="userSpaceOnUse" x1="35.6566" y1="18.7213" x2="35.6566" y2="7.9913" gradientTransform="matrix(1 0 0 -1 0 49.2912)">
			<stop  offset="0" style="stop-color:#72AFE0"/>
			<stop  offset="1" style="stop-color:#4991CC"/>
		</linearGradient>
		<path style="fill:url(#SVGID_00000107569392128194843780000016474366909589681052_);" d="M40.2,38.3
			C40.2,38.3,40.2,38.2,40.2,38.3c-0.8-2.3-2-5.4-3.2-6.2c-1.9-0.9-3.8-1.7-5.8-2.3v10.6C36.5,40,40.2,39.2,40.2,38.3z"/>
		
			<linearGradient id="SVGID_00000032643258265013726000000007021078460270336640_" gradientUnits="userSpaceOnUse" x1="12.265" y1="18.3213" x2="12.265" y2="8.0213" gradientTransform="matrix(1 0 0 -1 0 49.2912)">
			<stop  offset="0" style="stop-color:#72AFE0"/>
			<stop  offset="1" style="stop-color:#4991CC"/>
		</linearGradient>
		<path style="fill:url(#SVGID_00000032643258265013726000000007021078460270336640_);" d="M16.7,40.4V30.2c-2,0.4-3.9,1.1-5.8,1.8
			c-1.2,0.9-2.4,4.1-3.1,6.3C8.1,39.3,11.7,40.1,16.7,40.4z"/>
	</g>
</g>
</svg>
