<?xml version="1.0" encoding="utf-8"?>
<!-- Generator: Adobe Illustrator 26.2.1, SVG Export Plug-In . SVG Version: 6.00 Build 0)  -->
<svg version="1.1"
	 id="Livello_1" xmlns:cc="http://creativecommons.org/ns#" xmlns:dc="http://purl.org/dc/elements/1.1/" xmlns:rdf="http://www.w3.org/1999/02/22-rdf-syntax-ns#"
	 xmlns="http://www.w3.org/2000/svg" xmlns:xlink="http://www.w3.org/1999/xlink" x="0px" y="0px" viewBox="0 0 24 24"
	 style="enable-background:new 0 0 24 24;" xml:space="preserve">
<style type="text/css">
	.st0{fill:#C4D6E7;}
	.st1{fill:url(#SVGID_1_);}
	.st2{fill:#33855C;}
</style>
<g transform="translate(0 -1028.4)">
	<path class="st0" d="M9.5,1033.4c-3.6,0-6.5,2.9-6.5,6.5c0,0,0,0,0,0.1c-1.8,0.9-3,2.7-3,4.9c0,3,2.5,5.5,5.5,5.5h0h13.2H19
		c2.8,0,5-2.3,5-5c0-2.1-1.3-3.9-3.1-4.7c0.1-0.2,0.1-0.5,0.1-0.8c0-2-1.6-3.5-3.5-3.5c-0.8,0-1.5,0.2-2.1,0.7
		C14.3,1034.9,12.1,1033.4,9.5,1033.4L9.5,1033.4z"/>
	<linearGradient id="SVGID_1_" gradientUnits="userSpaceOnUse" x1="0" y1="1040.8999" x2="24.0002" y2="1040.8999">
		<stop  offset="0" style="stop-color:#F1F5F9"/>
		<stop  offset="1" style="stop-color:#D8E5F4"/>
	</linearGradient>
	<path class="st1" d="M9.5,1032.4c-3.6,0-6.5,2.9-6.5,6.5c0,0,0,0,0,0.1c-1.8,0.9-3,2.7-3,4.9c0,3,2.5,5.5,5.5,5.5h0h13.2H19
		c2.8,0,5-2.3,5-5c0-2.1-1.3-3.9-3.1-4.7c0.1-0.2,0.1-0.5,0.1-0.8c0-2-1.6-3.5-3.5-3.5c-0.8,0-1.5,0.2-2.1,0.7
		C14.3,1033.9,12.1,1032.4,9.5,1032.4L9.5,1032.4z"/>
	<path class="st2" d="M10,1039.7v3.9H8l4,3.9l4-3.9h-2v-3.9H10z"/>
</g>
</svg>
