<?xml version="1.0" ?><svg viewBox="0 0 48 48" xmlns="http://www.w3.org/2000/svg" xmlns:xlink="http://www.w3.org/1999/xlink"><defs><style>.cls-1{fill:url(#linear-gradient);}.cls-2{fill:url(#linear-gradient-2);}.cls-3{fill:url(#linear-gradient-3);}.cls-4{fill:url(#linear-gradient-4);}.cls-5{fill:url(#linear-gradient-5);}.cls-6{fill:url(#linear-gradient-6);}.cls-7{fill:url(#linear-gradient-7);}.cls-8{fill:url(#linear-gradient-8);}.cls-9{fill:url(#linear-gradient-9);}.cls-10{fill:url(#linear-gradient-10);}.cls-11{fill:url(#linear-gradient-11);}.cls-12{fill:url(#linear-gradient-12);}.cls-13{fill:url(#linear-gradient-13);}.cls-14{fill:url(#linear-gradient-14);}.cls-15{fill:url(#linear-gradient-15);}.cls-16{fill:url(#linear-gradient-16);}.cls-17{fill:url(#linear-gradient-17);}.cls-18{fill:url(#linear-gradient-18);}.cls-19{fill:url(#linear-gradient-19);}</style><linearGradient gradientUnits="userSpaceOnUse" id="linear-gradient" x1="13.89" x2="32.46" y1="8.41" y2="37.47"><stop offset="0" stop-color="#858585"/><stop offset="1" stop-color="#1f1f1f"/></linearGradient><linearGradient gradientUnits="userSpaceOnUse" id="linear-gradient-2" x1="23.85" x2="23.85" y1="17.54" y2="8.34"><stop offset="0" stop-color="#545454"/><stop offset="1" stop-color="#1a1a1a"/></linearGradient><linearGradient gradientUnits="userSpaceOnUse" id="linear-gradient-3" x1="23.85" x2="23.85" y1="11.54" y2="17.34"><stop offset="0" stop-color="#cee83f"/><stop offset="0.25" stop-color="#c9e33c"/><stop offset="0.55" stop-color="#bad334"/><stop offset="0.89" stop-color="#a3ba26"/><stop offset="1" stop-color="#99b020"/></linearGradient><linearGradient id="linear-gradient-4" x1="15.91" x2="15.91" xlink:href="#linear-gradient-2" y1="24.88" y2="22.84"/><linearGradient gradientUnits="userSpaceOnUse" id="linear-gradient-5" x1="15.91" x2="15.91" y1="23.2" y2="26.16"><stop offset="0" stop-color="#d3d3d3"/><stop offset="1" stop-color="#909090"/></linearGradient><linearGradient id="linear-gradient-6" x1="23.85" x2="23.85" xlink:href="#linear-gradient-2" y1="24.88" y2="22.84"/><linearGradient id="linear-gradient-7" x1="23.85" x2="23.85" xlink:href="#linear-gradient-5" y1="23.2" y2="26.16"/><linearGradient id="linear-gradient-8" x1="31.74" x2="31.74" xlink:href="#linear-gradient-2" y1="24.88" y2="22.84"/><linearGradient id="linear-gradient-9" x1="31.74" x2="31.74" xlink:href="#linear-gradient-5" y1="23.2" y2="26.16"/><linearGradient id="linear-gradient-10" x1="15.91" x2="15.91" xlink:href="#linear-gradient-2" y1="30.72" y2="28.68"/><linearGradient id="linear-gradient-11" x1="15.91" x2="15.91" xlink:href="#linear-gradient-5" y1="29.04" y2="32"/><linearGradient id="linear-gradient-12" x1="23.85" x2="23.85" xlink:href="#linear-gradient-2" y1="30.72" y2="28.68"/><linearGradient id="linear-gradient-13" x1="23.85" x2="23.85" xlink:href="#linear-gradient-5" y1="29.04" y2="32"/><linearGradient id="linear-gradient-14" x1="31.74" x2="31.74" xlink:href="#linear-gradient-2" y1="34.36" y2="29.59"/><linearGradient id="linear-gradient-15" x1="31.74" x2="31.74" xlink:href="#linear-gradient-5" y1="29.74" y2="38.46"/><linearGradient id="linear-gradient-16" x1="15.91" x2="15.91" xlink:href="#linear-gradient-2" y1="36.56" y2="34.53"/><linearGradient id="linear-gradient-17" x1="15.91" x2="15.91" xlink:href="#linear-gradient-5" y1="34.88" y2="37.84"/><linearGradient id="linear-gradient-18" x1="23.85" x2="23.85" xlink:href="#linear-gradient-2" y1="36.56" y2="34.53"/><linearGradient id="linear-gradient-19" x1="23.85" x2="23.85" xlink:href="#linear-gradient-5" y1="34.88" y2="37.84"/></defs><title/><g id="icons"><g data-name="Layer 3" id="Layer_3"><rect class="cls-1" height="34" rx="5" ry="5" width="26" x="10.85" y="7"/><rect class="cls-2" height="8.31" rx="2.41" ry="2.41" width="22.03" x="12.84" y="10.71"/><rect class="cls-3" height="6.6" rx="1.83" ry="1.83" width="20.52" x="13.59" y="11.54"/><rect class="cls-4" height="4.36" rx="2.18" ry="2.18" width="6.26" x="12.78" y="22.16"/><rect class="cls-5" height="3" rx="1.5" ry="1.5" width="4.63" x="13.59" y="22.84"/><rect class="cls-6" height="4.36" rx="2.18" ry="2.18" width="6.26" x="20.73" y="22.16"/><rect class="cls-7" height="3" rx="1.5" ry="1.5" width="4.63" x="21.54" y="22.84"/><rect class="cls-8" height="4.36" rx="2.18" ry="2.18" width="6.26" x="28.61" y="22.16"/><rect class="cls-9" height="3" rx="1.5" ry="1.5" width="4.63" x="29.42" y="22.84"/><rect class="cls-10" height="4.36" rx="2.18" ry="2.18" width="6.26" x="12.78" y="28.01"/><rect class="cls-11" height="3" rx="1.5" ry="1.5" width="4.63" x="13.59" y="28.69"/><rect class="cls-12" height="4.36" rx="2.18" ry="2.18" width="6.26" x="20.73" y="28.01"/><rect class="cls-13" height="3" rx="1.5" ry="1.5" width="4.63" x="21.54" y="28.69"/><rect class="cls-14" height="10.2" rx="2.21" ry="2.21" width="6.26" x="28.61" y="28.01"/><rect class="cls-15" height="8.84" rx="1.45" ry="1.45" width="4.63" x="29.42" y="28.69"/><rect class="cls-16" height="4.36" rx="2.18" ry="2.18" width="6.26" x="12.78" y="33.85"/><rect class="cls-17" height="3" rx="1.5" ry="1.5" width="4.63" x="13.59" y="34.53"/><rect class="cls-18" height="4.36" rx="2.18" ry="2.18" width="6.26" x="20.73" y="33.85"/><rect class="cls-19" height="3" rx="1.5" ry="1.5" width="4.63" x="21.54" y="34.53"/></g></g></svg>