<?xml version="1.0" ?><svg viewBox="0 0 48 48" xmlns="http://www.w3.org/2000/svg" xmlns:xlink="http://www.w3.org/1999/xlink"><defs><style>.cls-1{fill:url(#linear-gradient);}.cls-2{fill:url(#linear-gradient-2);}.cls-3{fill:#f1f5f9;}.cls-4{fill:#a7c1db;}</style><linearGradient gradientUnits="userSpaceOnUse" id="linear-gradient" x1="24.63" x2="24.63" y1="35.79" y2="44.6"><stop offset="0" stop-color="#f1f5f9"/><stop offset="1" stop-color="#a7c1db"/></linearGradient><linearGradient gradientUnits="userSpaceOnUse" id="linear-gradient-2" x1="24.63" x2="24.63" y1="10" y2="49.92"><stop offset="0" stop-color="#f1f5f9"/><stop offset="1" stop-color="#d8e5f4"/></linearGradient></defs><title/><g id="icons"><g data-name="Layer 3" id="Layer_3"><path class="cls-1" d="M13.13,41.71l3.89-3,3.9,3,3.9-3,3.49,3,3.91-3,3.91,3v-29a5,5,0,0,0-5-5h-13a5,5,0,0,0-5,5Z"/><path class="cls-2" d="M13.13,40.29l3.89-3,3.9,3,3.9-3,3.49,3,3.91-3,3.91,3v-29a5,5,0,0,0-5-5h-13a5,5,0,0,0-5,5Z"/><rect class="cls-3" height="2" width="13.13" x="19.94" y="15.04"/><rect class="cls-3" height="2" width="13.13" x="19.94" y="19.04"/><rect class="cls-3" height="2" width="13.13" x="19.94" y="23.04"/><rect class="cls-3" height="2" width="9.13" x="23.94" y="29.54"/><rect class="cls-3" height="2" width="2.57" x="15.72" y="15.04"/><rect class="cls-3" height="2" width="2.57" x="15.72" y="19.04"/><rect class="cls-3" height="2" width="2.57" x="15.72" y="23.04"/><rect class="cls-4" height="2" width="13.13" x="19.94" y="14.13"/><rect class="cls-4" height="2" width="13.13" x="19.94" y="18.13"/><rect class="cls-4" height="2" width="13.13" x="19.94" y="22.13"/><rect class="cls-4" height="2" width="9.13" x="23.94" y="28.63"/><rect class="cls-4" height="2" width="2.57" x="15.72" y="14.13"/><rect class="cls-4" height="2" width="2.57" x="15.72" y="18.13"/><rect class="cls-4" height="2" width="2.57" x="15.72" y="22.13"/></g></g></svg>