<?xml version="1.0" encoding="utf-8"?>
<!-- Generator: Adobe Illustrator 26.2.1, SVG Export Plug-In . SVG Version: 6.00 Build 0)  -->
<svg version="1.1" id="Livello_1" xmlns="http://www.w3.org/2000/svg" xmlns:xlink="http://www.w3.org/1999/xlink" x="0px" y="0px"
	 viewBox="0 0 48 48" style="enable-background:new 0 0 48 48;" xml:space="preserve">
<style type="text/css">
	.st0{fill:url(#SVGID_1_);}
	.st1{fill:url(#SVGID_00000156573924848279033420000003191384998380630170_);}
	.st2{fill:#E09D20;}
	.st3{fill:#F3DE8F;}
	.st4{fill:#FFE996;}
	.st5{opacity:0.2;}
	.st6{fill:url(#SVGID_00000139284253278538578010000009702976606454073260_);}
	.st7{fill:url(#SVGID_00000016060561087785270440000010218721309208369281_);}
	.st8{fill:#FFFFFF;}
</style>
<g id="icons">
	<g id="Layer_3">
		
			<linearGradient id="SVGID_1_" gradientUnits="userSpaceOnUse" x1="8.66" y1="30.2913" x2="40.66" y2="30.2913" gradientTransform="matrix(1 0 0 -1 0 49.2912)">
			<stop  offset="0" style="stop-color:#EDCC50"/>
			<stop  offset="1" style="stop-color:#E8C74D"/>
		</linearGradient>
		<path class="st0" d="M13.7,6.5h22c2.8,0,5,2.2,5,5v15c0,2.8-2.2,5-5,5h-22c-2.8,0-5-2.2-5-5v-15C8.7,8.7,10.9,6.5,13.7,6.5z"/>
		
			<linearGradient id="SVGID_00000140013788091343307830000014533270273319897497_" gradientUnits="userSpaceOnUse" x1="8.66" y1="20.2913" x2="40.66" y2="20.2913" gradientTransform="matrix(1 0 0 -1 0 49.2912)">
			<stop  offset="0" style="stop-color:#FBD855"/>
			<stop  offset="1" style="stop-color:#F6D352"/>
		</linearGradient>
		<path style="fill:url(#SVGID_00000140013788091343307830000014533270273319897497_);" d="M8.7,16.5h32l0,0v20c0,2.8-2.2,5-5,5h-22
			c-2.8,0-5-2.2-5-5V16.5L8.7,16.5z"/>
		<rect x="12" y="30.5" class="st2" width="9.5" height="2"/>
		<rect x="12" y="34.5" class="st2" width="5.8" height="2"/>
		<rect x="21" y="6.5" class="st3" width="7.4" height="10"/>
		<polygon class="st4" points="28.4,16.5 21,16.5 21,24.7 24.7,22.9 28.4,24.7 		"/>
	</g>
</g>
<g id="icons_00000165214301800363687540000008018734620563527856_">
	<g id="Layer_3_00000114048763925278100750000012844071959856734861_">
		<path class="st5" d="M36.8,11c-4.2,0-7.6,3.4-7.7,7.6s3.4,7.6,7.6,7.7c1.4,0,2.9-0.4,4.1-1.2v-13C39.6,11.4,38.2,11,36.8,11z"/>
		
			<linearGradient id="SVGID_00000114057971640597630540000006777451205450540735_" gradientUnits="userSpaceOnUse" x1="36.7949" y1="38.1646" x2="36.7949" y2="29.3346" gradientTransform="matrix(1 0 0 -1 0 49.2912)">
			<stop  offset="0" style="stop-color:#00BDE8"/>
			<stop  offset="1" style="stop-color:#009DC1"/>
		</linearGradient>
		<path style="fill:url(#SVGID_00000114057971640597630540000006777451205450540735_);" d="M44.4,16.7c0,4.2-3.4,7.6-7.6,7.6
			s-7.6-3.4-7.6-7.6s3.4-7.6,7.6-7.6c0,0,0,0,0,0C41,9.1,44.4,12.5,44.4,16.7z"/>
		
			<linearGradient id="SVGID_00000025436791291931361030000005876923476419592835_" gradientUnits="userSpaceOnUse" x1="36.8049" y1="37.4346" x2="36.8049" y2="29.7646" gradientTransform="matrix(1 0 0 -1 0 49.2912)">
			<stop  offset="0" style="stop-color:#00CFFF"/>
			<stop  offset="1" style="stop-color:#00AFD6"/>
		</linearGradient>
		<path style="fill:url(#SVGID_00000025436791291931361030000005876923476419592835_);" d="M36.8,23.3c-3.7,0-6.6-3-6.6-6.6
			s3-6.6,6.6-6.6c3.7,0,6.6,3,6.6,6.6S40.5,23.3,36.8,23.3L36.8,23.3z"/>
		<path class="st8" d="M41.3,19.9l-1.8-1.8c1.2-1.8,0.6-4.2-1.2-5.3c-1.8-1.2-4.2-0.6-5.3,1.2c-1.2,1.8-0.6,4.2,1.2,5.3
			c1.3,0.8,2.9,0.8,4.1,0l1.8,1.8L41.3,19.9z M34.5,17.7c-0.9-0.9-0.9-2.4,0-3.3s2.4-0.9,3.3,0c0.9,0.9,0.9,2.4,0,3.3
			C36.9,18.6,35.4,18.6,34.5,17.7z"/>
	</g>
</g>
</svg>
