<?xml version="1.0" encoding="utf-8"?>
<!-- Generator: Adobe Illustrator 26.2.1, SVG Export Plug-In . SVG Version: 6.00 Build 0)  -->
<svg version="1.1" id="Livello_1" xmlns="http://www.w3.org/2000/svg" xmlns:xlink="http://www.w3.org/1999/xlink" x="0px" y="0px"
	 viewBox="0 0 48 48" style="enable-background:new 0 0 48 48;" xml:space="preserve">
<style type="text/css">
	.st0{fill:#FDCF85;}
	.st1{fill:#EDBD77;}
	.st2{fill:#99543B;}
	.st3{fill:url(#SVGID_1_);}
	.st4{opacity:0.2;fill:#231F20;enable-background:new    ;}
	.st5{fill:url(#SVGID_00000022527062168711861280000012791707658764104847_);}
	.st6{fill:url(#SVGID_00000048499502730310202380000017545350511816611460_);}
	.st7{fill:url(#SVGID_00000033335980391112782340000009336972184678850468_);}
	.st8{fill:url(#SVGID_00000049934839111032175500000004226693413238667679_);}
	.st9{fill:url(#SVGID_00000155111623866330223670000000976909764296788879_);}
	.st10{fill:url(#SVGID_00000070804397568546227660000008222304474227064983_);}
	.st11{fill:url(#SVGID_00000080907411933091278450000017695672103972912829_);}
	.st12{fill:url(#SVGID_00000072996753807492781820000001814346605087174788_);}
	.st13{fill:#FFFFFF;}
</style>
<g id="icons">
	<g id="Layer_3">
		<path class="st0" d="M34.8,31.2c-4-0.7-6.7-2.7-6.7-4.4s0.1-6.6,0.1-6.6l-4.9-0.1h0l-4.9,0.1c0.5,2.2,0.8,4.5,1,6.7
			c0,1.7-1.8,3.8-5.6,4.3c-3.8,0.8-5,4.5-5.1,6.8l14.7-0.8h16C39.2,34.9,37.8,32.8,34.8,31.2z"/>
		<path class="st1" d="M23.4,29.5c1.8-0.1,3.5-1,4.7-2.3c0-0.1,0-0.2,0-0.3c0-1.7,0.1-6.6,0.1-6.6l-4.9-0.1h0l-4.9,0.1
			c0.5,2.2,0.8,4.5,1,6.7c0,0.2,0,0.5-0.1,0.7C20.4,28.7,21.9,29.4,23.4,29.5z"/>
		<path class="st0" d="M32.3,17.3c0.1-0.9-0.3-1.9-1-2.5c0.1-1.8,0.1-4.1-1-5C29.1,6.1,25.2,6,21.9,6s-5.5,1.4-6.8,5
			c-0.2,1.2-0.2,2.5,0.1,3.8c-0.7,0.6-1.1,1.6-1,2.5c0,1.5,0.7,2.7,1.5,2.7l0,0c1.2,5.7,5.3,8.1,7.6,8.1s6.3-2.4,7.5-8.2
			C31.7,19.9,32.3,18.7,32.3,17.3z"/>
		<path class="st2" d="M21.9,6c-3.1,0-5.5,1.4-6.8,5c-0.2,1.2-0.2,2.5,0.1,3.8c0.5,0.2,0.4,1,0.6,2.1c0.2,0.4,0.7,0.1,0.7,0.1
			c0-0.8,0.1-1.6,0.3-2.3c-0.4-1.5-0.3-2,0.8-2.4c3.6,0.8,7.3,0.7,10.8-0.5c0.8,0.5,1.1,1.5,0.8,2.3c-0.1,1.3-0.1,2.5,0.2,3.7
			c0.1,0.3,0.4,0.2,0.6,0.1c0.1-1.2,0.5-2.3,1.3-3.2c0.1-1.8,0.1-4.1-1-5C29.1,6.1,25.2,6,21.9,6z"/>
		
			<linearGradient id="SVGID_1_" gradientUnits="userSpaceOnUse" x1="24" y1="22.6213" x2="24" y2="9.3513" gradientTransform="matrix(1 0 0 -1 0 49.2912)">
			<stop  offset="0" style="stop-color:#FFFFFF"/>
			<stop  offset="0.3" style="stop-color:#FBFBFB"/>
			<stop  offset="1" style="stop-color:#F5F5F5"/>
		</linearGradient>
		<path class="st3" d="M29,40.6c5-0.2,8.9-0.8,10.4-1.6c-0.3-2.2-1.1-6-2.5-6.9c-2.3-1-4.7-1.9-7.1-2.7l-1.2,2.5l-3.3,1.5L24,33.8
			l-2.1-0.3c0,0-3.1-4.1-3.6-4.2c-1.2,1.2-6.7,2.7-6.7,2.7c-1.4,1-2.7,3.1-3,7c1.6,0.7,5.5,1.3,10.4,1.5L29,40.6z"/>
		<path class="st4" d="M29.3,29.2c-0.9,2.3-2.6,4.1-4.8,5c1.6,0.9,2.8,2.3,3.4,3.9c0,0,2.1-5.5,2.1-8.2
			C29.8,29.7,29.6,29.4,29.3,29.2z"/>
		<path class="st4" d="M18.9,29.2c0.9,2.3,2.6,4.1,4.9,5c-1.6,0.9-2.8,2.3-3.4,3.9c0,0-2.2-5.5-2.1-8.2
			C18.4,29.7,18.6,29.4,18.9,29.2z"/>
		
			<linearGradient id="SVGID_00000006690024469015479240000016491647372034830987_" gradientUnits="userSpaceOnUse" x1="21.95" y1="11.3163" x2="25.85" y2="11.3163" gradientTransform="matrix(1 0 0 -1 0 49.2912)">
			<stop  offset="0" style="stop-color:#C53535"/>
			<stop  offset="1" style="stop-color:#9C2A2A"/>
		</linearGradient>
		<path style="fill:url(#SVGID_00000006690024469015479240000016491647372034830987_);" d="M25.9,40.7L25,35.3l-2.1,0.1L22,40.7h2
			H25.9z"/>
		<path class="st4" d="M22.8,35.6c0.1,0.1,0.3,0.1,0.5,0.1h1.2c0.2,0,0.4-0.1,0.6-0.2l0-0.3l-2.1,0.1L22.8,35.6z"/>
		
			<linearGradient id="SVGID_00000116237184387048466880000015660660080800214165_" gradientUnits="userSpaceOnUse" x1="22.27" y1="14.7163" x2="25.41" y2="14.7163" gradientTransform="matrix(1 0 0 -1 0 49.2912)">
			<stop  offset="0" style="stop-color:#C53535"/>
			<stop  offset="1" style="stop-color:#9C2A2A"/>
		</linearGradient>
		<path style="fill:url(#SVGID_00000116237184387048466880000015660660080800214165_);" d="M23.2,33.6h1.2c0.5,0,1,0.4,1,1v0.1
			c0,0.5-0.4,1-1,1h-1.2c-0.5,0-1-0.4-1-1v-0.1C22.3,34,22.7,33.6,23.2,33.6z"/>
		
			<linearGradient id="SVGID_00000129908461881537124010000014784875076413917099_" gradientUnits="userSpaceOnUse" x1="20.8894" y1="20.4413" x2="20.8894" y2="10.9213" gradientTransform="matrix(1 0 0 -1 0 49.2912)">
			<stop  offset="0" style="stop-color:#FFFFFF"/>
			<stop  offset="0.3" style="stop-color:#FBFBFB"/>
			<stop  offset="1" style="stop-color:#F5F5F5"/>
		</linearGradient>
		<path style="fill:url(#SVGID_00000129908461881537124010000014784875076413917099_);" d="M18.8,28.6c0.9,2.3,2.6,4.1,4.8,5
			c-1.6,0.9-2.8,2.3-3.4,3.9c0,0-2.1-5.5-2.1-8.2C18.3,29,18.5,28.8,18.8,28.6z"/>
		
			<linearGradient id="SVGID_00000019645829929127784330000002175926774293887395_" gradientUnits="userSpaceOnUse" x1="-5233.5957" y1="20.4413" x2="-5233.5957" y2="10.9213" gradientTransform="matrix(-1 0 0 -1 -5206.3398 49.2912)">
			<stop  offset="0" style="stop-color:#FFFFFF"/>
			<stop  offset="0.3" style="stop-color:#FBFBFB"/>
			<stop  offset="1" style="stop-color:#F5F5F5"/>
		</linearGradient>
		<path style="fill:url(#SVGID_00000019645829929127784330000002175926774293887395_);" d="M29.4,28.6c-0.9,2.3-2.6,4.1-4.9,5
			c1.6,0.9,2.8,2.3,3.4,3.9c0,0,2.1-5.5,2.1-8.2C29.8,29,29.6,28.8,29.4,28.6z"/>
		
			<linearGradient id="SVGID_00000086664426918141512140000000170010435883705008_" gradientUnits="userSpaceOnUse" x1="35.6566" y1="18.7213" x2="35.6566" y2="7.9913" gradientTransform="matrix(1 0 0 -1 0 49.2912)">
			<stop  offset="0" style="stop-color:#72AFE0"/>
			<stop  offset="1" style="stop-color:#4991CC"/>
		</linearGradient>
		<path style="fill:url(#SVGID_00000086664426918141512140000000170010435883705008_);" d="M40.2,38.3
			C40.2,38.3,40.2,38.2,40.2,38.3c-0.8-2.3-2-5.4-3.2-6.2c-1.9-0.9-3.8-1.7-5.8-2.3v10.6C36.5,40,40.2,39.2,40.2,38.3z"/>
		
			<linearGradient id="SVGID_00000051365059018787957180000010072843900536159625_" gradientUnits="userSpaceOnUse" x1="12.265" y1="18.3213" x2="12.265" y2="8.0213" gradientTransform="matrix(1 0 0 -1 0 49.2912)">
			<stop  offset="0" style="stop-color:#72AFE0"/>
			<stop  offset="1" style="stop-color:#4991CC"/>
		</linearGradient>
		<path style="fill:url(#SVGID_00000051365059018787957180000010072843900536159625_);" d="M16.7,40.4V30.2c-2,0.4-3.9,1.1-5.8,1.8
			c-1.2,0.9-2.4,4.1-3.1,6.3C8.1,39.3,11.7,40.1,16.7,40.4z"/>
	</g>
</g>
<g>
	
		<linearGradient id="SVGID_00000000908438789111486780000014252295509767951756_" gradientUnits="userSpaceOnUse" x1="35.6566" y1="19.0513" x2="35.6566" y2="10.2113" gradientTransform="matrix(1 0 0 -1 0 49.2912)">
		<stop  offset="0" style="stop-color:#7DB700"/>
		<stop  offset="1" style="stop-color:#618E00"/>
	</linearGradient>
	<path style="fill:url(#SVGID_00000000908438789111486780000014252295509767951756_);" d="M43.3,35.8c0,4.2-3.4,7.6-7.6,7.6
		S28,40,28,35.8s3.4-7.6,7.6-7.6S43.3,31.6,43.3,35.8L43.3,35.8z"/>
	
		<linearGradient id="SVGID_00000147898922638137854940000016680175688745760956_" gradientUnits="userSpaceOnUse" x1="35.6566" y1="18.3213" x2="35.6566" y2="10.6413" gradientTransform="matrix(1 0 0 -1 0 49.2912)">
		<stop  offset="0" style="stop-color:#8ED000"/>
		<stop  offset="1" style="stop-color:#70A300"/>
	</linearGradient>
	<path style="fill:url(#SVGID_00000147898922638137854940000016680175688745760956_);" d="M35.7,42.4c-3.7,0-6.6-3-6.6-6.6
		s3-6.6,6.6-6.6c3.7,0,6.6,3,6.6,6.6c0,0,0,0,0,0C42.3,39.4,39.3,42.4,35.7,42.4z"/>
	<path class="st13" d="M34.5,36.9h-2.4c0-0.2-0.1-0.4-0.1-0.6c0-0.2,0-0.4,0-0.6c0-0.2,0-0.4,0-0.5c0-0.2,0-0.4,0.1-0.6h2.4V32
		l0.6-0.1c0.2,0,0.4,0,0.6,0c0.2,0,0.4,0,0.6,0l0.6,0.1v2.6h2.4c0,0.2,0.1,0.4,0.1,0.6c0,0.2,0,0.4,0,0.5c0,0.2,0,0.4,0,0.6
		c0,0.2-0.1,0.4-0.1,0.6h-2.4v2.6c-0.2,0-0.4,0.1-0.6,0.1c-0.2,0-0.4,0-0.5,0c-0.4,0-0.8,0-1.2-0.1L34.5,36.9z"/>
</g>
</svg>
