<?xml version="1.0" ?><svg viewBox="0 0 48 48" xmlns="http://www.w3.org/2000/svg" xmlns:xlink="http://www.w3.org/1999/xlink"><defs><style>.cls-1{fill:url(#linear-gradient);}.cls-2{fill:#c4d6e7;}.cls-3{fill:url(#linear-gradient-2);}.cls-4{fill:url(#linear-gradient-3);}.cls-5{fill:url(#linear-gradient-4);}.cls-6{fill:url(#linear-gradient-5);}.cls-7{fill:url(#linear-gradient-6);}.cls-8{fill:url(#linear-gradient-7);}.cls-9{fill:url(#linear-gradient-8);}.cls-10{fill:url(#linear-gradient-9);}.cls-11{fill:url(#linear-gradient-10);}.cls-12{fill:url(#linear-gradient-11);}.cls-13{fill:url(#linear-gradient-12);}</style><linearGradient gradientUnits="userSpaceOnUse" id="linear-gradient" x1="24.66" x2="24.66" y1="12.2" y2="44.47"><stop offset="0" stop-color="#f1f5f9"/><stop offset="1" stop-color="#d8e5f4"/></linearGradient><linearGradient id="linear-gradient-2" x1="24.66" x2="24.66" xlink:href="#linear-gradient" y1="8.3" y2="29.83"/><linearGradient gradientUnits="userSpaceOnUse" id="linear-gradient-3" x1="25.16" x2="25.16" y1="5.88" y2="13.65"><stop offset="0" stop-color="#f1f5f9"/><stop offset="1" stop-color="#a7c1db"/></linearGradient><linearGradient id="linear-gradient-4" x1="32.83" x2="32.83" xlink:href="#linear-gradient-3" y1="5.88" y2="13.65"/><linearGradient id="linear-gradient-5" x1="39.42" x2="39.42" xlink:href="#linear-gradient-3" y1="6.97" y2="13.69"/><linearGradient id="linear-gradient-6" x1="10.41" x2="10.41" xlink:href="#linear-gradient-3" y1="5.88" y2="13.65"/><linearGradient id="linear-gradient-7" x1="17.5" x2="17.5" xlink:href="#linear-gradient-3" y1="5.88" y2="13.65"/><linearGradient id="linear-gradient-8" x1="25.16" x2="25.16" xlink:href="#linear-gradient-3" y1="29.88" y2="37.65"/><linearGradient id="linear-gradient-9" x1="17.5" x2="17.5" xlink:href="#linear-gradient-3" y1="29.88" y2="37.65"/><linearGradient id="linear-gradient-10" x1="10.41" x2="10.41" xlink:href="#linear-gradient-3" y1="29.88" y2="37.65"/><linearGradient id="linear-gradient-11" x1="39.42" x2="39.42" xlink:href="#linear-gradient-3" y1="30.57" y2="37.29"/><linearGradient id="linear-gradient-12" x1="32.83" x2="32.83" xlink:href="#linear-gradient-3" y1="29.88" y2="37.65"/></defs><title/><g id="icons"><g data-name="Layer 3" id="Layer_3"><rect class="cls-1" height="30" rx="5" ry="5" width="38" x="5.66" y="9"/><path class="cls-2" d="M38.66,11.41h-28a5,5,0,0,0-5,5v3.68l19,11.29,19-11.29V16.41A5,5,0,0,0,38.66,11.41Z"/><path class="cls-3" d="M38.66,9h-28a5,5,0,0,0-5,5v3.69l19,11,19-11V14A5,5,0,0,0,38.66,9Z"/><polygon class="cls-4" points="25.37 14 28.37 11 24.95 11 21.95 14 25.37 14"/><polygon class="cls-5" points="33.04 14 36.04 11 32.62 11 29.62 14 33.04 14"/><path class="cls-6" d="M41.55,14a4.46,4.46,0,0,0-1.67-2.59L37.28,14Z"/><path class="cls-7" d="M10,14l3-3h-3a4.46,4.46,0,0,0-2.29,3Z"/><polygon class="cls-8" points="17.71 14 20.71 11 17.28 11 14.28 14 17.71 14"/><polygon class="cls-9" points="21.95 35 24.95 38 28.37 38 25.37 35 21.95 35"/><polygon class="cls-10" points="14.28 35 17.28 38 20.71 38 17.71 35 14.28 35"/><path class="cls-11" d="M7.78,35a4.46,4.46,0,0,0,2.29,3h3l-3-3Z"/><path class="cls-12" d="M37.28,35l2.6,2.59A4.46,4.46,0,0,0,41.55,35Z"/><polygon class="cls-13" points="29.62 35 32.62 38 36.04 38 33.04 35 29.62 35"/></g></g></svg>