<?xml version="1.0" ?><svg viewBox="0 0 48 48" xmlns="http://www.w3.org/2000/svg" xmlns:xlink="http://www.w3.org/1999/xlink"><defs><style>.cls-1{fill:#b48237;}.cls-2{fill:#eef2f8;}.cls-3{fill:url(#linear-gradient);}.cls-4{fill:#e5b46c;}.cls-5{fill:url(#linear-gradient-2);}.cls-6{fill:url(#linear-gradient-3);}.cls-7{fill:url(#linear-gradient-4);}.cls-8{fill:url(#linear-gradient-5);}.cls-9{fill:#bb7bb4;}.cls-10{fill:#5dc4dc;}.cls-11{fill:#ec5d24;}</style><linearGradient gradientUnits="userSpaceOnUse" id="linear-gradient" x1="16.3" x2="29.6" y1="10.96" y2="34.63"><stop offset="0" stop-color="#e6b873"/><stop offset="1" stop-color="#d9993b"/></linearGradient><linearGradient gradientTransform="translate(-12 139) rotate(-90)" gradientUnits="userSpaceOnUse" id="linear-gradient-2" x1="103" x2="107" y1="25.5" y2="25.5"><stop offset="0" stop-color="#7e5517"/><stop offset="1" stop-color="#623b00"/></linearGradient><linearGradient id="linear-gradient-3" x1="119" x2="123" xlink:href="#linear-gradient-2" y1="25.5" y2="25.5"/><linearGradient gradientTransform="translate(-95.5 12.5)" gradientUnits="userSpaceOnUse" id="linear-gradient-4" x1="103.5" x2="106.5" y1="21.5" y2="21.5"><stop offset="0" stop-color="#bfbfbf"/><stop offset="0.53" stop-color="#f8f8f8"/><stop offset="1" stop-color="#bfbfbf"/></linearGradient><linearGradient gradientTransform="translate(-111.5 -3.5)" id="linear-gradient-5" x1="119.5" x2="122.5" xlink:href="#linear-gradient-4" y1="21.5" y2="21.5"/></defs><title/><g id="icons"><g data-name="Layer 3" id="Layer_3"><path class="cls-1" d="M40,10.33V34.67c0,2.67-2.16,4.83-5.83,4.83H12.83C11.16,39.5,9,37.34,9,34.67V10.33C9,7.66,11.16,5.5,12.83,5.5H34.17C37.84,5.5,40,7.66,40,10.33Z"/><path class="cls-2" d="M39.15,11.05V34c0,2.51-2,4.55-5.49,4.55H13.46c-1.57,0-3.61-2-3.61-4.55V11.05c0-2.51,2-4.55,3.61-4.55h20.2C37.11,6.5,39.15,8.54,39.15,11.05Z"/><path class="cls-3" d="M40,13.33V37.67c0,2.67-2.16,4.83-5.83,4.83H12.83C11.16,42.5,9,40.34,9,37.67V13.33c0-2.67,2.16-4.83,3.83-4.83H34.17C37.84,8.5,40,10.66,40,13.33Z"/><path class="cls-1" d="M30.09,22.74c.11-.44.8-1,1.29-.8s.45,1.16.43,1.59c-.07,1.4-.76,2.77-.79,4.16s2-.62,2.25-1.09a4.33,4.33,0,0,0,0-4.55c-1.75-2.63-6.2-2.51-8.46-.65-2.42,2-2.91,6.4-.55,8.63s7.7,2.28,9.83-.4c.6,0,1.33.3,1,1a3.78,3.78,0,0,1-1.08,1A8.27,8.27,0,0,1,29.07,33c-3.71,0-7.26-1.85-7.71-5.85A7.35,7.35,0,0,1,26.5,19c3.21-.92,7.35.06,8.46,3.57a5.76,5.76,0,0,1-1.22,5.64c-.8.87-4.24,2.75-4.76.67a2.85,2.85,0,0,1-3.82.22,3.72,3.72,0,0,1-.91-3.69,4.86,4.86,0,0,1,2.34-3.34A2.67,2.67,0,0,1,30.09,22.74ZM26,26.58c0,1.18.85,2.32,2.12,1.63,1.06-.57,1.5-2.13,1.52-3.24s-.71-2.31-2-1.77S26,25.39,26,26.58Z"/><path class="cls-1" d="M9,13.5v24c0,2.76,2,5,4.38,5H17V8.5H13.38C11,8.5,9,10.74,9,13.5Z"/><rect class="cls-4" height="2" transform="translate(-7.5 43.5) rotate(-90)" width="34" x="1" y="24.5"/><circle class="cls-4" cx="13.5" cy="34" r="2.5"/><circle class="cls-5" cx="13.5" cy="34" r="2"/><circle class="cls-4" cx="13.5" cy="18" r="2.5"/><circle class="cls-6" cx="13.5" cy="18" r="2"/><rect class="cls-7" height="9" rx="1.5" ry="1.5" transform="translate(-24.5 43.5) rotate(-90)" width="3" x="8" y="29.5"/><rect class="cls-8" height="9" rx="1.5" ry="1.5" transform="translate(-8.5 27.5) rotate(-90)" width="3" x="8" y="13.5"/><path class="cls-9" d="M40,27.5h.67A2.33,2.33,0,0,1,43,29.83v4.33a2.33,2.33,0,0,1-2.33,2.33H40a0,0,0,0,1,0,0v-9A0,0,0,0,1,40,27.5Z"/><path class="cls-10" d="M40,20.5h.67A2.33,2.33,0,0,1,43,22.83v4.33a2.33,2.33,0,0,1-2.33,2.33H40a0,0,0,0,1,0,0v-9A0,0,0,0,1,40,20.5Z"/><path class="cls-11" d="M40,13.5h.67A2.33,2.33,0,0,1,43,15.83v4.33a2.33,2.33,0,0,1-2.33,2.33H40a0,0,0,0,1,0,0v-9a0,0,0,0,1,0,0Z"/></g></g></svg>