<?xml version="1.0" encoding="utf-8"?>
<!-- Generator: Adobe Illustrator 26.2.1, SVG Export Plug-In . SVG Version: 6.00 Build 0)  -->
<svg version="1.1" id="Livello_1" xmlns="http://www.w3.org/2000/svg" xmlns:xlink="http://www.w3.org/1999/xlink" x="0px" y="0px"
	 viewBox="0 0 48 48" style="enable-background:new 0 0 48 48;" xml:space="preserve">
<style type="text/css">
	.st0{fill:#FFE996;}
	.st1{fill:#E09D20;}
	.st2{fill:#E1EAF6;}
	.st3{fill:url(#SVGID_1_);}
	.st4{fill:url(#SVGID_00000093896646812421690600000016117381168692687497_);}
	.st5{opacity:0.2;enable-background:new    ;}
	.st6{fill:url(#SVGID_00000109030381217191999670000016290376402696404651_);}
	.st7{fill:url(#SVGID_00000163046557199452870530000015515331291789040792_);}
	.st8{fill:#FFFFFF;}
</style>
<g id="icons">
	<g id="Layer_3">
		<path class="st0" d="M39,11H23c0-2.8-2.2-5-5-5H9c-2.8,0-5,2.2-5,5v19c0,2.8,2.2,5,5,5h30c2.8,0,5-2.2,5-5V16
			C44,13.2,41.8,11,39,11z"/>
		<path class="st1" d="M39,13H23c0-2.8-2.2-5-5-5H9c-2.8,0-5,2.2-5,5v19c0,2.8,2.2,5,5,5h30c2.8,0,5-2.2,5-5V18
			C44,15.2,41.8,13,39,13z"/>
		<g>
			<path class="st2" d="M40,13.5v18c0,2.8-2.2,5-5,5H10c-2.8,0-5-2.2-5-5V19c0-1.6,0.6-3.1,1.8-4.3l4.4-4.4c1.1-1.1,2.7-1.8,4.3-1.8
				H35C37.8,8.5,40,10.7,40,13.5z"/>
			
				<linearGradient id="SVGID_1_" gradientUnits="userSpaceOnUse" x1="-5552.8188" y1="5634.8735" x2="-5552.8188" y2="5670.1934" gradientTransform="matrix(6.123234e-17 -1 1 6.123234e-17 -5630.3438 -5530.3188)">
				<stop  offset="0" style="stop-color:#F1F5F9"/>
				<stop  offset="1" style="stop-color:#D8E5F4"/>
			</linearGradient>
			<path class="st3" d="M42,13.5v18c0,2.8-2.2,5-5,5H12c-2.8,0-5-2.2-5-5V19c0-1.6,0.6-3.1,1.8-4.3l4.4-4.4c1.1-1.1,2.7-1.8,4.3-1.8
				H37C39.8,8.5,42,10.7,42,13.5z"/>
		</g>
		<path class="st0" d="M9,17h30c2.8,0,5,2.2,5,5v15c0,2.8-2.2,5-5,5H9c-2.8,0-5-2.2-5-5V22C4,19.2,6.2,17,9,17z"/>
		
			<linearGradient id="SVGID_00000183953043407886735800000010403931314728769935_" gradientUnits="userSpaceOnUse" x1="24" y1="5637.9199" x2="24" y2="5657.1899" gradientTransform="matrix(1 0 0 1 0 -5620.0005)">
			<stop  offset="0" style="stop-color:#FBD855"/>
			<stop  offset="1" style="stop-color:#F6D352"/>
		</linearGradient>
		<path style="fill:url(#SVGID_00000183953043407886735800000010403931314728769935_);" d="M9,19h30c2.8,0,5,2.2,5,5v13
			c0,2.8-2.2,5-5,5H9c-2.8,0-5-2.2-5-5V24C4,21.2,6.2,19,9,19z"/>
		<g id="icons_00000183228570058633936440000017165762319555325603_">
			<g id="Layer_3_00000024697209427345458590000006890058716491090363_">
				<path class="st5" d="M22.3,35.5l1.8,1.8l1.8-1.8C24.9,34.7,23.4,34.7,22.3,35.5z M24.1,24.4c-3.4,0-6.8,1.3-9.2,3.7l2.1,2.1
					c4-3.8,10.3-3.8,14.3,0l2.1-2.1C30.9,25.7,27.6,24.4,24.1,24.4z M18.3,31.6l2.1,2.1c2.1-1.9,5.3-1.9,7.4,0l2.1-2.1
					C26.7,28.5,21.6,28.5,18.3,31.6z"/>
				<path class="st1" d="M22.3,34.7l1.8,1.8l1.8-1.8C24.9,33.9,23.4,33.9,22.3,34.7z M24.1,23.6c-3.4,0-6.8,1.3-9.2,3.7l2.1,2.1
					c4-3.8,10.3-3.8,14.3,0l2.1-2.1C30.9,25,27.6,23.6,24.1,23.6z M18.3,30.8l2.1,2.1c2.1-1.9,5.3-1.9,7.4,0l2.1-2.1
					C26.7,27.7,21.6,27.7,18.3,30.8z"/>
			</g>
		</g>
		<g id="Layer_3_00000021105871107824206800000012230865501864983478_">
			<path class="st5" d="M40,22.9c-4.2,0-7.6,3.4-7.7,7.6s3.4,7.6,7.6,7.7c1.4,0,2.9-0.4,4.1-1.2V24C42.8,23.2,41.4,22.9,40,22.9z"/>
			
				<linearGradient id="SVGID_00000146468261062961006530000005748270554472997295_" gradientUnits="userSpaceOnUse" x1="40.2" y1="5643.1274" x2="40.2" y2="5651.957" gradientTransform="matrix(1 0 0 1 0 -5620.0005)">
				<stop  offset="0" style="stop-color:#53BB9A"/>
				<stop  offset="1" style="stop-color:#42947A"/>
			</linearGradient>
			<path style="fill:url(#SVGID_00000146468261062961006530000005748270554472997295_);" d="M47.8,28.7c0,4.2-3.4,7.6-7.6,7.6
				s-7.6-3.4-7.6-7.6s3.4-7.6,7.6-7.6l0,0C44.3,21.1,47.8,24.5,47.8,28.7z"/>
			
				<linearGradient id="SVGID_00000052093633192635791480000011927092034455111597_" gradientUnits="userSpaceOnUse" x1="40.1" y1="5643.8574" x2="40.1" y2="5651.5273" gradientTransform="matrix(1 0 0 1 0 -5620.0005)">
				<stop  offset="0" style="stop-color:#46D2A6"/>
				<stop  offset="1" style="stop-color:#4BA98B"/>
			</linearGradient>
			<path style="fill:url(#SVGID_00000052093633192635791480000011927092034455111597_);" d="M40.1,35.3c-3.7,0-6.6-3-6.6-6.6
				s3-6.6,6.6-6.6c3.7,0,6.6,3,6.6,6.6S43.8,35.3,40.1,35.3L40.1,35.3z"/>
			<path class="st8" d="M36.9,31.8c0-0.3,0.1-0.6,0.2-0.8h6.2c0.1,0.1,0.1,0.3,0.2,0.4c0,0.1,0,0.3,0,0.4s0,0.3,0,0.4
				c0,0.2-0.1,0.3-0.2,0.4h-6.2C36.9,32.3,36.9,32.1,36.9,31.8z"/>
			<polygon class="st8" points="40.1,23.1 40.1,23.1 40.1,23.1 36.3,27 37.6,28.2 39,26.6 39,30.1 41.2,30.1 41.2,26.6 42.6,28.1 
				43.9,26.9 			"/>
		</g>
	</g>
</g>
</svg>
