<?xml version="1.0" encoding="utf-8"?>
<!-- Generator: Adobe Illustrator 26.2.1, SVG Export Plug-In . SVG Version: 6.00 Build 0)  -->
<svg version="1.1" id="Livello_1" xmlns="http://www.w3.org/2000/svg" xmlns:xlink="http://www.w3.org/1999/xlink" x="0px" y="0px"
	 viewBox="0 0 48 48" style="enable-background:new 0 0 48 48;" xml:space="preserve">
<style type="text/css">
	.st0{fill:#99543B;}
	.st1{fill:#FDCF85;}
	.st2{fill:#EDBD77;}
	.st3{fill:url(#SVGID_1_);}
	.st4{fill:url(#SVGID_00000092422796302264058150000007556217245380821681_);}
	.st5{fill:url(#SVGID_00000056407373789672537870000013471251452749185706_);}
	.st6{fill:#16492E;}
	.st7{fill:#F99653;}
	.st8{fill:url(#SVGID_00000179614164182844933040000014424794693518347189_);}
	.st9{fill:url(#SVGID_00000068671817830044923290000013860270497035239059_);}
	.st10{fill:#FFFFFF;}
</style>
<g id="icons">
	<g id="Layer_3">
		<path class="st0" d="M31.9,12c-1.8-4.8-4.2-6.4-8.5-6.2s-8,2.3-9.6,8.1c-1.6,6.1,1.3,12.5-2.9,19c-0.7,1,24,0,24,0
			C32.1,26.6,35.9,22.8,31.9,12z"/>
		<path class="st1" d="M34.8,31.6c-4-0.7-6.7-2.7-6.7-4.4s0.1-6.6,0.1-6.6l-4.9-0.1l0,0l-4.9,0.1c0.5,2.2,0.8,4.5,1,6.7
			c0,1.7-1.8,3.8-5.6,4.3c-3.8,0.8-4.9,4.5-5.1,6.8l14.7-0.8h16C39.2,35.3,37.9,33.2,34.8,31.6z"/>
		<path class="st2" d="M23.4,29.8c1.8-0.1,3.5-1,4.7-2.3c0-0.1,0-0.2,0-0.3c0-1.7,0.1-6.6,0.1-6.6l-4.9-0.1l0,0l-4.9,0.1
			c0.5,2.2,0.8,4.5,1,6.7c0,0.2,0,0.5-0.1,0.7C20.5,29,21.9,29.7,23.4,29.8z"/>
		
			<linearGradient id="SVGID_1_" gradientUnits="userSpaceOnUse" x1="24" y1="22.2913" x2="24" y2="9.0213" gradientTransform="matrix(1 0 0 -1 0 49.2912)">
			<stop  offset="0" style="stop-color:#FFFFFF"/>
			<stop  offset="0.3" style="stop-color:#FBFBFB"/>
			<stop  offset="1" style="stop-color:#F5F5F5"/>
		</linearGradient>
		<path class="st3" d="M36.9,32.4c-2.2-1-4.4-1.8-6.7-2.6l0,0c0,0-1.9,5.7-6.2,5.7s-5.8-5.9-5.8-5.9c-1.2,1.2-6.7,2.6-6.7,2.6
			c-1.4,1-2.7,3.1-3,7c1.6,0.8,5.4,1.3,10.4,1.6h10c5-0.2,8.9-0.8,10.4-1.6C39.1,37.2,38.3,33.3,36.9,32.4z"/>
		
			<linearGradient id="SVGID_00000134212018769797113250000002232520911249757846_" gradientUnits="userSpaceOnUse" x1="35.6566" y1="18.3913" x2="35.6566" y2="7.6613" gradientTransform="matrix(1 0 0 -1 0 49.2912)">
			<stop  offset="0" style="stop-color:#A9DB3B"/>
			<stop  offset="1" style="stop-color:#92B93B"/>
		</linearGradient>
		<path style="fill:url(#SVGID_00000134212018769797113250000002232520911249757846_);" d="M40.2,38.6
			C40.2,38.6,40.2,38.6,40.2,38.6c-0.8-2.3-2-5.4-3.2-6.2c-1.9-0.9-3.8-1.7-5.8-2.3v10.6C36.5,40.4,40.2,39.6,40.2,38.6z"/>
		
			<linearGradient id="SVGID_00000050623321943307303050000014322581777833483428_" gradientUnits="userSpaceOnUse" x1="12.27" y1="17.9913" x2="12.27" y2="7.6913" gradientTransform="matrix(1 0 0 -1 0 49.2912)">
			<stop  offset="0" style="stop-color:#A9DB3B"/>
			<stop  offset="1" style="stop-color:#92B93B"/>
		</linearGradient>
		<path style="fill:url(#SVGID_00000050623321943307303050000014322581777833483428_);" d="M16.7,40.8V30.6c-2,0.4-3.9,1.1-5.8,1.8
			c-1.2,0.9-2.4,4.1-3.1,6.3C8.1,39.6,11.7,40.4,16.7,40.8z"/>
		<path class="st1" d="M31.4,15.2L31.4,15.2c-0.3,0.1-0.7,0.5-0.9,2c-0.4-2.2-1.6-5.3-2.1-5.6c-1.6,2.9-8.3,7.5-12.5,9
			c1.3,5.5,5.2,7.9,7.5,7.9s6.3-2.4,7.5-8.2c0.8-0.1,1.4-1.2,1.4-2.6C32.4,16.8,32.1,15.8,31.4,15.2z"/>
	</g>
</g>
<g>
	<g>
		<path class="st6" d="M31.9,15h-1.4v5.5h1.4c0.8,0,1.4-0.6,1.4-1.4v-2.7C33.4,15.7,32.8,15,31.9,15z"/>
	</g>
	<g>
		<path class="st6" d="M25.1,25.5c-0.7,0-0.9,0-1.8-0.1h-0.9v-0.7h0.9c4.2,0.1,5.6,0.2,6.9-0.9c1.3-1.1,1.1-3.9,1.1-4l0.7-0.1
			c0,0.1,0.3,3.3-1.3,4.6C29.5,25.4,27.9,25.5,25.1,25.5z"/>
	</g>
	<path class="st7" d="M25.3,26.3h-2.5c-0.4,0-0.7-0.3-0.7-0.7v-0.9c0-0.4,0.3-0.7,0.7-0.7h2.5c0.4,0,0.7,0.3,0.7,0.7v0.9
		C26,25.9,25.7,26.3,25.3,26.3z"/>
</g>
<g id="icons_00000165214301800363687540000008018734620563527856_">
	<g id="Layer_3_00000114048763925278100750000012844071959856734861_">
		
			<linearGradient id="SVGID_00000083782909404351616790000000826498294971122858_" gradientUnits="userSpaceOnUse" x1="36.307" y1="5649.5386" x2="36.307" y2="5658.3687" gradientTransform="matrix(1 0 0 1 0 -5620.0005)">
			<stop  offset="0" style="stop-color:#00BDE8"/>
			<stop  offset="1" style="stop-color:#009DC1"/>
		</linearGradient>
		<path style="fill:url(#SVGID_00000083782909404351616790000000826498294971122858_);" d="M43.9,35.1c0,4.2-3.4,7.6-7.6,7.6
			s-7.6-3.4-7.6-7.6s3.4-7.6,7.6-7.6l0,0C40.5,27.5,43.9,30.9,43.9,35.1z"/>
		
			<linearGradient id="SVGID_00000147927459530945957290000003574632263142581681_" gradientUnits="userSpaceOnUse" x1="36.307" y1="5650.2686" x2="36.307" y2="5657.9385" gradientTransform="matrix(1 0 0 1 0 -5620.0005)">
			<stop  offset="0" style="stop-color:#00CFFF"/>
			<stop  offset="1" style="stop-color:#00AFD6"/>
		</linearGradient>
		<path style="fill:url(#SVGID_00000147927459530945957290000003574632263142581681_);" d="M36.3,41.7c-3.7,0-6.6-3-6.6-6.6
			s3-6.6,6.6-6.6c3.7,0,6.6,3,6.6,6.6S40,41.7,36.3,41.7L36.3,41.7z"/>
		<path class="st10" d="M33.7,38.4c1.4,0.1,2.9-0.4,4.2-1.3c1.3-1,2.2-2.3,2.5-3.7c0.1-0.5-0.3-1.4-0.9-1.8c-0.1,0-0.1-0.1-0.2-0.1
			c-0.3-0.2-0.7-0.2-1,0c-0.1,0.1-0.2,0.1-0.2,0.2l-0.6,0.8c-0.3,0.4,0.1,0.8,0.2,0.9c0.1,0.1,0.2,0.2,0.2,0.2
			c0.3,0.3,0.2,0.4,0,0.7c-0.3,0.4-0.7,0.8-1.2,1.1c-0.4,0.3-0.9,0.6-1.4,0.8c-0.3,0.1-0.5,0.1-0.7-0.2c-0.1-0.1-0.1-0.2-0.2-0.3
			c-0.1-0.2-0.3-0.6-0.8-0.4l-1,0.3c-0.6,0.2-0.6,0.7-0.6,1.1c0,0.1,0,0.1,0.1,0.2C32.5,37.7,33.2,38.3,33.7,38.4z"/>
	</g>
</g>
</svg>
