<?xml version="1.0" encoding="utf-8"?>
<!-- Generator: Adobe Illustrator 26.2.1, SVG Export Plug-In . SVG Version: 6.00 Build 0)  -->
<svg version="1.1" id="Livello_1" xmlns="http://www.w3.org/2000/svg" xmlns:xlink="http://www.w3.org/1999/xlink" x="0px" y="0px"
	 viewBox="0 0 48 48" style="enable-background:new 0 0 48 48;" xml:space="preserve">
<style type="text/css">
	.st0{fill:url(#SVGID_1_);}
	.st1{fill:url(#SVGID_00000013915007486394250070000002476674482312661670_);}
	.st2{fill:url(#SVGID_00000103946691461294663270000018422911254435515794_);}
	.st3{fill:url(#SVGID_00000100355129427859431650000003003144317650341283_);}
	.st4{fill:url(#SVGID_00000011718545694121441780000008871435451288002976_);}
	.st5{fill:url(#SVGID_00000060009941911699134740000009352963627249164960_);}
	.st6{fill:url(#SVGID_00000021108816402720823040000011695621189346469797_);}
	.st7{fill:url(#SVGID_00000159448109100311266460000016256697579199866514_);}
	.st8{fill:url(#SVGID_00000102507955882343170380000015423841247673728426_);}
	.st9{fill:url(#SVGID_00000117642008701845522730000017401616743755839106_);}
	.st10{fill:url(#SVGID_00000069384408409876676940000010113230932466103980_);}
	.st11{fill:url(#SVGID_00000089561950534101959760000009034316884895312021_);}
	.st12{fill:url(#SVGID_00000111190769371257830690000004017770904594886560_);}
</style>
<g id="icons">
	<g id="Layer_3">
		
			<linearGradient id="SVGID_1_" gradientUnits="userSpaceOnUse" x1="23.85" y1="27.1913" x2="23.85" y2="9.2813" gradientTransform="matrix(1 0 0 -1 0 49.2912)">
			<stop  offset="0.18" style="stop-color:#FFC308"/>
			<stop  offset="1" style="stop-color:#DE9908"/>
		</linearGradient>
		<path class="st0" d="M7.8,21.5h32l0,0v13c0,2.8-2.2,5-5,5h-22c-2.8,0-5-2.2-5-5C7.8,34.5,7.8,21.5,7.8,21.5z"/>
		
			<linearGradient id="SVGID_00000010310475420925607330000004119684331191027370_" gradientUnits="userSpaceOnUse" x1="23.85" y1="34.0013" x2="23.85" y2="26.9113" gradientTransform="matrix(1 0 0 -1 0 49.2912)">
			<stop  offset="0.18" style="stop-color:#E5AD00"/>
			<stop  offset="1" style="stop-color:#C68600"/>
		</linearGradient>
		<rect x="7.8" y="21.5" style="fill:url(#SVGID_00000010310475420925607330000004119684331191027370_);" width="32" height="2"/>
		
			<linearGradient id="SVGID_00000183250858685268506690000003909750081270925456_" gradientUnits="userSpaceOnUse" x1="23.7658" y1="33.5212" x2="23.9758" y2="25.5412" gradientTransform="matrix(1 0 0 -1 0 49.2912)">
			<stop  offset="0.18" style="stop-color:#FFC308"/>
			<stop  offset="1" style="stop-color:#DE9908"/>
		</linearGradient>
		<path style="fill:url(#SVGID_00000183250858685268506690000003909750081270925456_);" d="M8.4,16.5h31c1.4,0,2.5,1.1,2.5,2.5l0,0
			c0,1.4-1.1,2.5-2.5,2.5h-31c-1.4,0-2.5-1.1-2.5-2.5l0,0C5.8,17.6,7,16.5,8.4,16.5z"/>
		
			<linearGradient id="SVGID_00000048475506922394315020000009161182624895904933_" gradientUnits="userSpaceOnUse" x1="15.35" y1="12.0513" x2="15.35" y2="16.4813" gradientTransform="matrix(1 0 0 -1 0 49.2912)">
			<stop  offset="0.18" style="stop-color:#FFC308"/>
			<stop  offset="1" style="stop-color:#DE9908"/>
		</linearGradient>
		<path style="fill:url(#SVGID_00000048475506922394315020000009161182624895904933_);" d="M15.4,27.5L15.4,27.5
			c0.8,0,1.5,0.7,1.5,1.5v6c0,0.8-0.7,1.5-1.5,1.5l0,0c-0.8,0-1.5-0.7-1.5-1.5v-6C13.9,28.1,14.5,27.5,15.4,27.5z"/>
		
			<linearGradient id="SVGID_00000018939566072385917100000017839546693525047683_" gradientUnits="userSpaceOnUse" x1="21.35" y1="12.0513" x2="21.35" y2="16.4813" gradientTransform="matrix(1 0 0 -1 0 49.2912)">
			<stop  offset="0.18" style="stop-color:#FFC308"/>
			<stop  offset="1" style="stop-color:#DE9908"/>
		</linearGradient>
		<path style="fill:url(#SVGID_00000018939566072385917100000017839546693525047683_);" d="M21.4,27.5L21.4,27.5
			c0.8,0,1.5,0.7,1.5,1.5v6c0,0.8-0.7,1.5-1.5,1.5l0,0c-0.8,0-1.5-0.7-1.5-1.5v-6C19.9,28.1,20.5,27.5,21.4,27.5z"/>
		
			<linearGradient id="SVGID_00000103259921310374628850000003180872834523071909_" gradientUnits="userSpaceOnUse" x1="27.35" y1="12.0513" x2="27.35" y2="16.4813" gradientTransform="matrix(1 0 0 -1 0 49.2912)">
			<stop  offset="0.18" style="stop-color:#FFC308"/>
			<stop  offset="1" style="stop-color:#DE9908"/>
		</linearGradient>
		<path style="fill:url(#SVGID_00000103259921310374628850000003180872834523071909_);" d="M27.4,27.5L27.4,27.5
			c0.8,0,1.5,0.7,1.5,1.5v6c0,0.8-0.7,1.5-1.5,1.5l0,0c-0.8,0-1.5-0.7-1.5-1.5v-6C25.9,28.1,26.5,27.5,27.4,27.5z"/>
		
			<linearGradient id="SVGID_00000009570342870388767760000004527624361061716885_" gradientUnits="userSpaceOnUse" x1="33.35" y1="12.0513" x2="33.35" y2="16.4813" gradientTransform="matrix(1 0 0 -1 0 49.2912)">
			<stop  offset="0.18" style="stop-color:#FFC308"/>
			<stop  offset="1" style="stop-color:#DE9908"/>
		</linearGradient>
		<path style="fill:url(#SVGID_00000009570342870388767760000004527624361061716885_);" d="M33.3,27.5L33.3,27.5
			c0.8,0,1.5,0.7,1.5,1.5v6c0,0.8-0.7,1.5-1.5,1.5l0,0c-0.8,0-1.5-0.7-1.5-1.5v-6C31.9,28.1,32.5,27.5,33.3,27.5z"/>
		
			<linearGradient id="SVGID_00000018948022367611726690000005543369673629367429_" gradientUnits="userSpaceOnUse" x1="15.35" y1="21.8113" x2="15.35" y2="13.1413" gradientTransform="matrix(1 0 0 -1 0 49.2912)">
			<stop  offset="0.18" style="stop-color:#8F6500"/>
			<stop  offset="1" style="stop-color:#774800"/>
		</linearGradient>
		<path style="fill:url(#SVGID_00000018948022367611726690000005543369673629367429_);" d="M15.4,26.5L15.4,26.5
			c0.8,0,1.5,0.7,1.5,1.5v6c0,0.8-0.7,1.5-1.5,1.5l0,0c-0.8,0-1.5-0.7-1.5-1.5v-6C13.9,27.1,14.5,26.5,15.4,26.5z"/>
		
			<linearGradient id="SVGID_00000052812729272203430030000005692772596692793236_" gradientUnits="userSpaceOnUse" x1="21.35" y1="21.8113" x2="21.35" y2="13.1413" gradientTransform="matrix(1 0 0 -1 0 49.2912)">
			<stop  offset="0.18" style="stop-color:#8F6500"/>
			<stop  offset="1" style="stop-color:#774800"/>
		</linearGradient>
		<path style="fill:url(#SVGID_00000052812729272203430030000005692772596692793236_);" d="M21.4,26.5L21.4,26.5
			c0.8,0,1.5,0.7,1.5,1.5v6c0,0.8-0.7,1.5-1.5,1.5l0,0c-0.8,0-1.5-0.7-1.5-1.5v-6C19.9,27.1,20.5,26.5,21.4,26.5z"/>
		
			<linearGradient id="SVGID_00000132064958892566100670000007847613780112491653_" gradientUnits="userSpaceOnUse" x1="27.35" y1="21.8113" x2="27.35" y2="13.1413" gradientTransform="matrix(1 0 0 -1 0 49.2912)">
			<stop  offset="0.18" style="stop-color:#8F6500"/>
			<stop  offset="1" style="stop-color:#774800"/>
		</linearGradient>
		<path style="fill:url(#SVGID_00000132064958892566100670000007847613780112491653_);" d="M27.4,26.5L27.4,26.5
			c0.8,0,1.5,0.7,1.5,1.5v6c0,0.8-0.7,1.5-1.5,1.5l0,0c-0.8,0-1.5-0.7-1.5-1.5v-6C25.9,27.1,26.5,26.5,27.4,26.5z"/>
		
			<linearGradient id="SVGID_00000114794758670280170310000001028765030734878621_" gradientUnits="userSpaceOnUse" x1="33.35" y1="21.8113" x2="33.35" y2="13.1413" gradientTransform="matrix(1 0 0 -1 0 49.2912)">
			<stop  offset="0.18" style="stop-color:#8F6500"/>
			<stop  offset="1" style="stop-color:#774800"/>
		</linearGradient>
		<path style="fill:url(#SVGID_00000114794758670280170310000001028765030734878621_);" d="M33.3,26.5L33.3,26.5
			c0.8,0,1.5,0.7,1.5,1.5v6c0,0.8-0.7,1.5-1.5,1.5l0,0c-0.8,0-1.5-0.7-1.5-1.5v-6C31.9,27.1,32.5,26.5,33.3,26.5z"/>
		
			<linearGradient id="SVGID_00000144298131873600144020000005970787221484229809_" gradientUnits="userSpaceOnUse" x1="14.7394" y1="35.9308" x2="16.8694" y2="33.8008" gradientTransform="matrix(1 0 0 -1 2.473720e-03 49.2932)">
			<stop  offset="0" style="stop-color:#4D4D4D"/>
			<stop  offset="0.18" style="stop-color:#808080"/>
			<stop  offset="1" style="stop-color:#4D4D4D"/>
		</linearGradient>
		<path style="fill:url(#SVGID_00000144298131873600144020000005970787221484229809_);" d="M21.4,9L21.4,9c0.6,0.6,0.6,1.5,0,2.1
			L12.5,20c-0.6,0.6-1.5,0.6-2.1,0l0,0c-0.6-0.6-0.6-1.5,0-2.1L19.2,9C19.8,8.4,20.8,8.4,21.4,9z"/>
		
			<linearGradient id="SVGID_00000123417686693213263600000005205560792302856868_" gradientUnits="userSpaceOnUse" x1="32.9163" y1="35.8851" x2="30.8263" y2="33.7951" gradientTransform="matrix(1 0 0 -1 1.655874e-03 49.2962)">
			<stop  offset="0" style="stop-color:#4D4D4D"/>
			<stop  offset="0.18" style="stop-color:#808080"/>
			<stop  offset="1" style="stop-color:#4D4D4D"/>
		</linearGradient>
		<path style="fill:url(#SVGID_00000123417686693213263600000005205560792302856868_);" d="M37.4,20L37.4,20c-0.6,0.6-1.5,0.6-2.1,0
			l-8.9-8.9c-0.6-0.6-0.6-1.5,0-2.1l0,0c0.6-0.6,1.5-0.6,2.1,0l8.9,8.9C38,18.5,38,19.4,37.4,20z"/>
	</g>
</g>
</svg>
