<?xml version="1.0" encoding="utf-8"?>
<!-- Generator: Adobe Illustrator 26.2.1, SVG Export Plug-In . SVG Version: 6.00 Build 0)  -->
<svg version="1.1" id="Livello_1" xmlns="http://www.w3.org/2000/svg" xmlns:xlink="http://www.w3.org/1999/xlink" x="0px" y="0px"
	 viewBox="0 0 64 64" style="enable-background:new 0 0 64 64;" xml:space="preserve">
<style type="text/css">
	.st0{opacity:0.2;}
	.st1{fill:#231F20;}
	.st2{fill:#FFFFFF;}
	.st3{fill:#E0E0D1;}
	.st4{fill:#E0995E;}
	.st5{fill:#76C2AF;}
	.st6{fill:#C75C5C;}
	.st7{fill:#006937;}
	.st8{fill-rule:evenodd;clip-rule:evenodd;fill:#006937;}
</style>
<g id="Layer_1">
	<g class="st0">
		<path class="st1" d="M52,48c0,2.2-1.8,4-4,4H16c-2.2,0-4-1.8-4-4V18c0-2.2,1.8-4,4-4h32c2.2,0,4,1.8,4,4V48z"/>
	</g>
	<g>
		<path class="st2" d="M12,21.5V46c0,2.2,1.8,4,4,4h32c2.2,0,4-1.8,4-4V21.5H12z"/>
	</g>
	<g class="st0">
		<path class="st1" d="M52,18c0-2.2-1.8-4-4-4H16c-2.2,0-4,1.8-4,4v6h40V18z"/>
	</g>
	<g>
		<path class="st3" d="M52,16c0-2.2-1.8-4-4-4H16c-2.2,0-4,1.8-4,4v6h40V16z"/>
	</g>
	<g>
		<circle class="st4" cx="23" cy="17" r="2"/>
	</g>
	<g>
		<circle class="st5" cx="29" cy="17" r="2"/>
	</g>
	<g>
		<circle class="st6" cx="17" cy="17" r="2"/>
	</g>
	<g>
		<rect x="16" y="34" class="st7" width="12" height="12"/>
	</g>
	<g>
		<rect x="32" y="34" class="st3" width="16" height="2"/>
	</g>
	<g>
		<rect x="32" y="38.5" class="st3" width="16" height="2"/>
	</g>
	<g>
		<rect x="32" y="44" class="st3" width="16" height="2"/>
	</g>
	<g>
		<g>
			<path class="st7" d="M29.9,30.5h0.2V32h-0.2v-1.2c-0.2,0.2-0.2,0.2-0.5,0.4V31C29.5,31,29.9,30.7,29.9,30.5L29.9,30.5z"/>
			<polygon class="st7" points="36.2,26.6 38.9,29.4 38.9,29.4 38.9,26.8 39.3,26.8 39.3,30.5 39.3,30.5 36.6,27.7 36.6,27.7 
				36.6,30.3 36.2,30.3 			"/>
			<polygon class="st7" points="34.9,26.8 35.4,26.8 35.4,30.3 34.9,30.3 			"/>
			<polygon class="st7" points="26.5,26.8 27,26.8 27,30.3 26.5,30.3 			"/>
			<polygon class="st7" points="23.2,26.8 23.6,26.8 23.6,28.2 25.4,28.2 25.4,26.8 25.8,26.8 25.8,30.3 25.4,30.3 25.4,28.6 
				23.6,28.6 23.6,30.3 23.2,30.3 			"/>
			<path class="st7" d="M22.5,27v0.5c-0.2-0.2-0.6-0.5-1-0.5h-0.1c-0.8,0-1.3,0.8-1.3,1.4c0,0.9,0.7,1.4,1.3,1.4h0.1
				c0.5,0,1-0.4,1-0.5v0.5c-0.2,0.2-0.7,0.3-1.1,0.3c0,0,0,0-0.1,0c-1,0-1.7-1-1.7-1.8c0-1,0.7-1.8,1.7-1.8c0.1,0,0.1,0,0.1,0
				C22,26.7,22.4,27,22.5,27z"/>
			<path class="st8" d="M32.9,28.7c0,0,0.2,0,0.3-0.1c0.4-0.1,0.5-0.6,0.5-0.9v-0.1c0-0.6-0.6-0.9-1-0.9H32v3.5h0.4v-1.5h0.1
				l0.6,0.9l0.5,0.7H34v0L32.9,28.7z M32.4,28.4v-1.2c0.3,0,0.3,0,0.3,0c0.5,0,0.6,0.3,0.6,0.6c0,0.4-0.3,0.6-0.7,0.6
				C32.5,28.4,32.6,28.4,32.4,28.4z"/>
			<path class="st8" d="M31.4,30.9c-0.1-0.2-0.2-0.3-0.5-0.3c-0.3,0-0.5,0.2-0.5,0.5c0,0.3,0.2,0.5,0.5,0.5c0.2,0,0.2-0.1,0.3-0.2
				c0,0,0,0.1,0,0.1c0,0.1,0,0.1,0,0.2c0,0.2-0.2,0.2-0.3,0.2c-0.2,0-0.3,0-0.4-0.2c0,0,0,0.1,0,0.2c0.1,0.1,0.3,0.1,0.4,0.1
				c0.2,0,0.3-0.1,0.4-0.1c0.1-0.1,0.1-0.2,0.1-0.4C31.5,31.2,31.5,31,31.4,30.9z M31,31.4c-0.2,0-0.3-0.1-0.3-0.3s0.1-0.3,0.3-0.3
				c0.2,0,0.3,0.1,0.3,0.3C31.3,31.2,31.2,31.4,31,31.4z"/>
			<path class="st8" d="M32.2,30.5c-0.3,0-0.5,0.2-0.5,0.7c0,0.6,0.2,0.7,0.5,0.7s0.5-0.2,0.5-0.7C32.6,30.7,32.5,30.5,32.2,30.5z
				 M32.1,31.9c-0.2,0-0.3-0.2-0.3-0.6c0-0.4,0.1-0.6,0.3-0.6c0.3,0,0.3,0.2,0.3,0.6C32.5,31.7,32.4,31.9,32.1,31.9z"/>
			<path class="st8" d="M33.3,31.1c-0.2,0-0.2,0.1-0.3,0.2c0,0,0-0.1,0-0.1c0-0.1,0-0.1,0-0.2c0-0.2,0.2-0.2,0.3-0.2
				c0.2,0,0.3,0,0.4,0.2c0,0,0-0.1,0-0.2c-0.1-0.1-0.3-0.1-0.4-0.1c-0.2,0-0.3,0.1-0.4,0.1c-0.1,0.1-0.1,0.2-0.1,0.4
				c0,0.3,0,0.5,0,0.7c0.1,0.2,0.2,0.3,0.5,0.3c0.3,0,0.5-0.2,0.5-0.5C33.8,31.3,33.6,31.1,33.3,31.1z M33.3,31.9
				c-0.2,0-0.3-0.1-0.3-0.3c0-0.2,0.1-0.3,0.3-0.3c0.2,0,0.3,0.1,0.3,0.3S33.5,31.9,33.3,31.9z"/>
			<g>
				<path class="st7" d="M45,25.5c-0.3,0-0.6,0.3-0.6,0.6s0.3,0.6,0.6,0.6c0.3,0,0.6-0.3,0.6-0.6C45.6,25.8,45.3,25.5,45,25.5z
					 M45,26.6c-0.3,0-0.5-0.2-0.5-0.5c0-0.3,0.2-0.5,0.5-0.5c0.3,0,0.5,0.2,0.5,0.5C45.5,26.4,45.3,26.6,45,26.6z"/>
				<path class="st7" d="M45.2,26.3C45.2,26.3,45.2,26.3,45.2,26.3l0-0.1c0,0,0-0.1,0-0.1c0,0,0,0,0,0c0,0,0,0,0.1,0c0,0,0,0,0-0.1
					c0-0.1,0-0.1-0.1-0.1c0,0-0.1,0-0.1,0h-0.3v0.6h0.1v-0.2H45c0,0,0.1,0,0.1,0c0,0,0,0,0,0.1L45.2,26.3
					C45.1,26.3,45.1,26.3,45.2,26.3C45.1,26.4,45.1,26.4,45.2,26.3L45.2,26.3L45.2,26.3C45.2,26.4,45.2,26.3,45.2,26.3z M45.1,26.1
					C45.1,26.1,45,26.1,45.1,26.1l-0.3,0v-0.2H45c0,0,0,0,0.1,0C45.1,25.9,45.1,25.9,45.1,26.1C45.1,26,45.1,26,45.1,26.1z"/>
			</g>
			<path class="st7" d="M29.4,26.7c-1,0-1.8,0.8-1.8,1.8s0.9,1.8,1.8,1.8c1,0,1.8-0.8,1.8-1.8C31.2,27.5,30.4,26.7,29.4,26.7z
				 M29.4,30c-0.8,0-1.4-0.6-1.4-1.4c0-0.8,0.7-1.4,1.4-1.4c0.8,0,1.4,0.6,1.4,1.4S30.2,30,29.4,30z"/>
			<path class="st7" d="M41.8,26.7c-1,0-1.8,0.8-1.8,1.8s0.9,1.8,1.8,1.8c1,0,1.8-0.8,1.8-1.8C43.7,27.5,42.8,26.7,41.8,26.7z
				 M41.8,30c-0.8,0-1.4-0.6-1.4-1.4c0-0.8,0.7-1.4,1.4-1.4c0.8,0,1.4,0.6,1.4,1.4S42.6,30,41.8,30z"/>
			<path class="st7" d="M44.6,27.4c-0.1-0.4-0.4-0.7-0.6-0.9c-0.3-0.3-0.6-0.5-0.9-0.6c-0.4-0.2-0.8-0.2-1.2-0.2l0,0H21.5l0,0
				c-0.4,0-0.8,0.1-1.2,0.2c-0.4,0.1-0.7,0.4-0.9,0.6c-0.3,0.3-0.5,0.6-0.6,0.9c-0.2,0.4-0.2,0.8-0.2,1.2s0.1,0.8,0.2,1.2
				c0.1,0.4,0.4,0.7,0.6,0.9c0.3,0.3,0.6,0.5,0.9,0.6c0.4,0.2,0.8,0.2,1.2,0.2h6.9v-0.4h-6.9c-0.3,0-0.7-0.1-1-0.2
				c-0.3-0.1-0.6-0.3-0.8-0.6c-0.2-0.2-0.4-0.5-0.6-0.8c-0.1-0.3-0.2-0.7-0.2-1c0-0.3,0.1-0.7,0.2-1c0.1-0.3,0.3-0.6,0.6-0.8
				s0.5-0.4,0.8-0.6c0.3-0.1,0.7-0.2,1-0.2l0,0h20.4l0,0c0.3,0,0.7,0.1,1,0.2c0.3,0.1,0.6,0.3,0.8,0.6c0.2,0.2,0.4,0.5,0.6,0.8
				c0.1,0.3,0.2,0.7,0.2,1c0,0.3-0.1,0.7-0.2,1c-0.1,0.3-0.3,0.6-0.6,0.8c-0.2,0.2-0.5,0.4-0.8,0.6c-0.3,0.1-0.7,0.2-1,0.2h-7v0.4h7
				c0.4,0,0.8-0.1,1.2-0.2c0.4-0.1,0.7-0.4,0.9-0.6c0.3-0.3,0.5-0.6,0.6-0.9c0.2-0.4,0.2-0.8,0.2-1.2S44.8,27.7,44.6,27.4z"/>
		</g>
	</g>
</g>
<g id="Layer_2">
</g>
</svg>
